<?xml version="1.0" encoding="UTF-8" standalone="no"?>
<!-- Created with Inkscape (http://www.inkscape.org/) -->

<svg
   width="531.46667mm"
   height="103.85771mm"
   viewBox="0 0 531.46667 103.85771"
   version="1.1"
   id="svg1219"
   sodipodi:docname="logo_RobSIC_full_hor.svg"
   inkscape:export-filename="../logo_RobSIC_full_hor.png"
   inkscape:export-xdpi="96"
   inkscape:export-ydpi="96"
   inkscape:version="1.2.1 (9c6d41e410, 2022-07-14, custom)"
   xmlns:inkscape="http://www.inkscape.org/namespaces/inkscape"
   xmlns:sodipodi="http://sodipodi.sourceforge.net/DTD/sodipodi-0.dtd"
   xmlns:xlink="http://www.w3.org/1999/xlink"
   xmlns="http://www.w3.org/2000/svg"
   xmlns:svg="http://www.w3.org/2000/svg">
  <sodipodi:namedview
     id="namedview1221"
     pagecolor="#ffffff"
     bordercolor="#000000"
     borderopacity="0.25"
     inkscape:showpageshadow="2"
     inkscape:pageopacity="0.0"
     inkscape:pagecheckerboard="0"
     inkscape:deskcolor="#d1d1d1"
     inkscape:document-units="mm"
     showgrid="false"
     inkscape:zoom="0.6621221"
     inkscape:cx="1004.3465"
     inkscape:cy="195.58326"
     inkscape:window-width="1440"
     inkscape:window-height="831"
     inkscape:window-x="0"
     inkscape:window-y="0"
     inkscape:window-maximized="1"
     inkscape:current-layer="layer1" />
  <defs
     id="defs1216">
    <linearGradient
       id="linearGradient906">
      <stop
         style="stop-color:#7cbf56;stop-opacity:1;"
         offset="0"
         id="stop900" />
      <stop
         id="stop902"
         offset="0.5"
         style="stop-color:#9fcb81;stop-opacity:1;" />
      <stop
         style="stop-color:#d9e3cf;stop-opacity:1;"
         offset="1"
         id="stop904" />
    </linearGradient>
    <linearGradient
       id="linearGradient5497">
      <stop
         style="stop-color:#7cbf56;stop-opacity:1;"
         offset="0"
         id="stop5499" />
      <stop
         style="stop-color:#cee4c5;stop-opacity:1;"
         offset="1"
         id="stop5501" />
    </linearGradient>
    <radialGradient
       inkscape:collect="always"
       xlink:href="#linearGradient911"
       id="radialGradient915"
       cx="387.73386"
       cy="501.02728"
       fx="387.73386"
       fy="501.02728"
       r="168.14024"
       gradientTransform="matrix(0.07572303,-0.31118314,0.44179381,0.10750579,-128.21934,215.50892)"
       gradientUnits="userSpaceOnUse" />
    <linearGradient
       inkscape:collect="always"
       id="linearGradient911">
      <stop
         style="stop-color:#d6e4cd;stop-opacity:1;"
         offset="0"
         id="stop907" />
      <stop
         style="stop-color:#6cc24a;stop-opacity:1;"
         offset="1"
         id="stop909" />
    </linearGradient>
  </defs>
  <g
     inkscape:label="Camada 1"
     inkscape:groupmode="layer"
     id="layer1"
     transform="translate(-54.832608,-96.571309)">
    <g
       id="g4131">
      <g
         id="g4120">
        <path
           id="path2996-3"
           style="fill:url(#radialGradient915);fill-opacity:1;stroke:none;stroke-width:0.282222"
           d="m 132.52295,96.571559 c -5.06103,0 -9.32434,3.348656 -10.63604,7.911141 l -25.779305,1.72857 c -1.81585,-4.00908 -5.90182,-6.808875 -10.65413,-6.808875 -6.43918,0 -11.65923,5.135395 -11.65923,11.465445 0,6.33005 5.22005,11.46545 11.65923,11.46545 1.61955,0 3.15829,-0.32182 4.55993,-0.90847 l 16.113225,18.77663 c -0.59764,1.23015 -1.04697,2.54409 -1.3317,3.91552 l -24.165445,-4.17132 c -0.65816,-6.41484 -6.16849,-11.42101 -12.86743,-11.42101 -7.142303,0 -12.929447,5.69633 -12.929447,12.71757 0,7.02124 5.787144,12.70879 12.929447,12.70879 5.5022,0 10.19666,-3.37919 12.06489,-8.14059 l 24.808815,4.28656 c 0.30574,2.00214 0.96507,3.89812 1.9141,5.60896 l -8.802045,8.30802 c -0.97496,-0.32807 -2.01613,-0.5116 -3.1042,-0.5116 -5.29912,0 -9.5958,4.21854 -9.5958,9.42785 0,5.20931 4.29668,9.43715 9.5958,9.43715 5.29912,0 9.595275,-4.22784 9.595275,-9.43715 0,-1.97623 -0.61863,-3.8112 -1.67535,-5.3268 l 7.72563,-7.3024 c 3.06318,2.67193 7.09208,4.30361 11.50937,4.30361 0.65932,0 1.30904,-0.0355 1.94924,-0.10594 l 5.82961,12.67365 c -0.31007,0.20593 -0.60458,0.43165 -0.89348,0.66352 a 12.858755,12.697479 0 0 0 -0.65578,0.56483 12.858755,12.697479 0 0 0 -0.046,0.0455 12.858755,12.697479 0 0 0 -0.0982,0.0971 c -0.15608,0.14865 -0.31106,0.29749 -0.45941,0.45372 a 12.858755,12.697479 0 0 0 -0.62631,0.70332 c -0.1313,0.15991 -0.25089,0.32856 -0.37466,0.49454 a 12.858755,12.697479 0 0 0 -1.3441,2.20142 12.858755,12.697479 0 0 0 -0.004,0.007 c -0.76728,1.6177 -1.20406,3.41544 -1.20406,5.31698 0,3.8241 1.72922,7.23817 4.45037,9.56324 a 12.858755,12.697479 0 0 1 -0.2527,-0.28783 12.858755,12.697479 0 0 0 0.65526,0.55448 12.858755,12.697479 0 0 1 -0.35398,-0.22479 c 0.90248,0.76342 1.90977,1.40838 3.00343,1.90634 a 12.858755,12.697479 0 0 1 -0.35553,-0.22582 12.858755,12.697479 0 0 0 0.88315,0.39584 12.858755,12.697479 0 0 1 -0.44184,-0.12816 c 1.08733,0.48546 2.25245,0.83229 3.47525,1.00718 a 12.858755,12.697479 0 0 1 -0.48215,-0.13953 12.858755,12.697479 0 0 0 2.31924,0.2341 12.858755,12.697479 0 0 0 0.56844,-0.0403 12.858755,12.697479 0 0 1 -0.57516,0.0749 12.858755,12.697479 0 0 1 -1.83037,-0.12919 c 0.61372,0.0878 1.23639,0.14831 1.87481,0.14831 7.1423,0 12.92893,-5.68754 12.92893,-12.70879 0,-4.43038 -2.31387,-8.31526 -5.80998,-10.58746 a 12.858755,12.697479 0 0 0 -0.38034,-0.24288 c -0.10443,-0.0628 -0.20679,-0.12815 -0.31316,-0.18811 a 12.858755,12.697479 0 0 0 -6.46317,-1.72134 12.858755,12.697479 0 0 0 -1.63039,0.11524 l -5.64358,-12.26385 c 5.71997,-2.7891 9.6485,-8.58207 9.6485,-15.28434 0,-7.51222 -4.93979,-13.8898 -11.80031,-16.16594 l 3.98632,-13.1408 c 0.39171,0.0413 0.78776,0.0703 1.19062,0.0703 6.10552,0 11.05101,-4.86346 11.05101,-10.86548 0,-6.00203 -4.94549,-10.874261 -11.05101,-10.874261 z m -1.0635,102.702251 c -0.0292,-0.013 -0.0568,-0.0286 -0.0858,-0.0419 a 12.858755,12.697479 0 0 0 0.0858,0.0419 z m -3.08922,-1.9482 c -0.0163,-0.0138 -0.0323,-0.028 -0.0486,-0.0419 a 12.858755,12.697479 0 0 0 0.0486,0.0419 z m -6.48332,-86.91614 c 0.65773,2.28449 2.0566,4.25577 3.92482,5.66167 l -4.37492,14.41979 c -4.55241,0.092 -8.66869,1.91353 -11.71195,4.81573 L 94.723195,117.82659 c 1.26539,-1.6278 2.09943,-3.60317 2.328019,-5.75056 z m 0.29972,29.60646 c 4.45351,0 8.06101,3.9632 8.06101,8.85476 0,4.89156 -3.6075,8.85476 -8.06101,8.85476 -4.45351,0 -8.06979,-3.9632 -8.06979,-8.85476 0,-4.89156 3.61628,-8.85476 8.06979,-8.85476 z m 8.45685,36.53627 a 12.858755,12.697479 0 0 0 -0.0661,0.0351 12.858755,12.697479 0 0 1 0.0661,-0.0351 z m -6.72827,11.09596 a 12.858755,12.697479 0 0 0 -0.002,0.03 12.858755,12.697479 0 0 0 0.0119,0.16743 12.858755,12.697479 0 0 1 -0.0191,-0.13281 12.858755,12.697479 0 0 1 0.009,-0.0646 z m 25.30026,3.12746 a 12.858755,12.697479 0 0 1 -0.0708,0.32091 12.858755,12.697479 0 0 0 0.0708,-0.32091 z m -24.81761,0.31523 a 12.858755,12.697479 0 0 0 0.14005,0.43873 12.858755,12.697479 0 0 1 -0.14005,-0.43873 z m 23.64507,2.63188 a 12.858755,12.697479 0 0 1 -0.2992,0.54053 12.858755,12.697479 0 0 0 0.2992,-0.54053 z m -22.23068,0.56276 a 12.858755,12.697479 0 0 0 0.38137,0.57257 12.858755,12.697479 0 0 1 -0.38137,-0.57257 z m 20.2892,2.09134 a 12.858755,12.697479 0 0 1 -0.56276,0.55552 12.858755,12.697479 0 0 0 0.56276,-0.55552 z m -2.61793,2.11305 a 12.858755,12.697479 0 0 1 -0.77566,0.41806 12.858755,12.697479 0 0 0 0.77566,-0.41806 z m -3.12487,1.37924 a 12.858755,12.697479 0 0 1 -0.87385,0.18759 12.858755,12.697479 0 0 0 0.87385,-0.18759 z" />
        <text
           id="text3125"
           y="160.90132"
           x="90.922394"
           style="font-style:normal;font-weight:normal;font-size:35.7386px;line-height:125%;font-family:Sans;letter-spacing:0px;word-spacing:0px;fill:#6e7ca0;fill-opacity:1;stroke:none;stroke-width:0.282222"
           xml:space="preserve"><tspan
             y="160.90132"
             x="90.922394"
             id="tspan3127"
             sodipodi:role="line"
             style="fill:#6e7ca0;fill-opacity:1;stroke-width:0.282222">R  bSIC</tspan></text>
        <path
           inkscape:connector-curvature="0"
           id="path3963"
           d="m 121.03827,161.19875 c 0.005,-0.0626 -0.0242,-0.1162 -0.064,-0.11914 -0.0398,-0.003 -0.086,-0.12649 -0.10262,-0.27456 -0.0166,-0.14806 -0.0605,-0.27144 -0.0976,-0.27418 -0.0371,-0.003 -0.0613,-0.0879 -0.0538,-0.18922 0.007,-0.10133 -0.03,-0.23482 -0.0833,-0.29665 -0.0533,-0.0618 -0.10823,-0.29145 -0.12202,-0.51027 -0.0138,-0.21882 -0.0522,-0.39986 -0.0854,-0.40231 -0.0332,-0.003 -0.073,-0.11803 -0.0886,-0.25685 -0.0374,-0.33338 -0.26375,-0.54536 -0.66244,-0.62037 -0.17882,-0.0336 -0.32314,-0.0882 -0.3207,-0.12113 0.003,-0.033 -0.21263,-0.0996 -0.47793,-0.14795 l -0.48235,-0.088 -1.04645,0.90637 c -0.70013,0.60642 -1.08971,0.89403 -1.17718,0.86907 -0.0719,-0.0205 -0.12839,-0.0689 -0.12554,-0.10761 0.003,-0.0387 -0.0471,-0.0742 -0.11098,-0.0789 -0.0639,-0.005 -0.1314,-0.0591 -0.15,-0.12084 -0.0186,-0.0617 -0.13178,-0.14147 -0.25149,-0.17719 -0.11972,-0.0357 -0.21555,-0.0937 -0.21295,-0.12875 0.003,-0.0351 -0.096,-0.0939 -0.21919,-0.1306 -0.12314,-0.0368 -0.22145,-0.10001 -0.21845,-0.14059 0.003,-0.0406 -0.0943,-0.11705 -0.21628,-0.16993 -0.17768,-0.0771 -0.2185,-0.1399 -0.20547,-0.31632 0.009,-0.1211 0.0456,-0.218 0.0816,-0.21535 0.0359,0.003 0.0993,-0.17029 0.14079,-0.38431 0.0415,-0.21402 0.10627,-0.40661 0.14389,-0.42797 0.0763,-0.0433 0.31662,-0.98834 0.34336,-1.35036 0.0123,-0.16692 -0.0529,-0.31222 -0.22924,-0.51076 -0.13556,-0.1526 -0.24452,-0.30393 -0.24213,-0.33628 0.002,-0.0324 -0.12945,-0.20341 -0.29298,-0.38015 l -0.29731,-0.32134 -0.49786,0.0141 c -0.27383,0.008 -0.51794,0.0406 -0.54247,0.0729 -0.0245,0.0323 -0.25128,0.0688 -0.5039,0.0811 -0.25263,0.0122 -0.47827,0.0464 -0.50142,0.076 -0.0231,0.0295 -0.20915,0.0636 -0.41331,0.0757 -0.3288,0.0195 -0.37445,0.004 -0.39959,-0.1322 -0.0156,-0.0848 -0.0541,-0.15609 -0.0855,-0.15842 -0.0314,-0.002 -0.0888,-0.16102 -0.12752,-0.35267 -0.0387,-0.19165 -0.0974,-0.35044 -0.13034,-0.35288 -0.033,-0.003 -0.0745,-0.10561 -0.0922,-0.22927 -0.0177,-0.12366 -0.08,-0.24732 -0.13832,-0.2748 -0.0583,-0.0275 -0.1022,-0.10223 -0.0975,-0.16613 0.005,-0.0639 -0.0256,-0.11869 -0.0673,-0.12178 -0.12206,-0.009 -0.066,-0.29483 0.0883,-0.45026 0.0781,-0.0786 0.17119,-0.14079 0.20696,-0.13814 0.0358,0.003 0.45226,-0.32754 0.92556,-0.73372 l 0.86054,-0.73852 -0.04,-0.81556 c -0.0469,-0.95561 -0.11119,-1.06725 -0.71119,-1.23455 -0.22437,-0.0626 -0.40587,-0.14162 -0.40336,-0.1757 0.003,-0.0341 -0.11325,-0.0932 -0.25726,-0.13138 -0.14402,-0.0382 -0.25989,-0.0959 -0.25751,-0.12823 0.002,-0.0323 -0.14757,-0.0932 -0.33326,-0.13522 -0.18568,-0.042 -0.33544,-0.10574 -0.33279,-0.1416 0.003,-0.0358 -0.10041,-0.0966 -0.22902,-0.13495 -0.12861,-0.0384 -0.19863,-0.0892 -0.1556,-0.1129 0.043,-0.0237 0.13321,-0.46697 0.20041,-0.98499 0.0672,-0.51802 0.15023,-0.95811 0.18453,-0.97798 0.0343,-0.0199 0.0888,-0.0942 0.12116,-0.16528 0.0408,-0.0896 0.14078,-0.12309 0.32669,-0.10935 0.14735,0.0109 0.27011,-0.01 0.27279,-0.0463 0.003,-0.0363 0.27975,-0.0697 0.6157,-0.0742 0.33596,-0.004 0.61317,-0.0399 0.61604,-0.0788 0.003,-0.0389 0.13328,-0.0617 0.28979,-0.0507 0.44005,0.0308 0.62895,-0.0301 0.69307,-0.22385 0.0323,-0.0975 0.0853,-0.17528 0.11786,-0.17288 0.0326,0.003 0.0898,-0.111 0.12718,-0.25202 0.0374,-0.14102 0.1063,-0.26611 0.15311,-0.27796 0.0468,-0.0118 0.11566,-0.19986 0.15296,-0.41778 0.0576,-0.33649 0.0451,-0.42075 -0.0828,-0.55888 -0.0829,-0.0895 -0.14829,-0.19428 -0.14544,-0.23295 0.003,-0.0387 -0.0884,-0.18994 -0.2027,-0.33618 -0.36238,-0.46349 -0.41857,-0.54685 -0.41363,-0.61367 0.003,-0.0359 -0.10756,-0.20354 -0.24491,-0.37255 -0.29385,-0.36159 -0.2665,-0.57284 0.11103,-0.85776 0.13091,-0.0988 0.24007,-0.20733 0.24257,-0.24117 0.003,-0.0338 0.11436,-0.15407 0.24857,-0.26719 0.13421,-0.11312 0.24644,-0.23833 0.24939,-0.27825 0.003,-0.0399 0.12077,-0.17212 0.26183,-0.29378 0.20398,-0.17591 0.29597,-0.20811 0.44946,-0.15731 0.10614,0.0351 0.20843,0.0917 0.22732,0.12564 0.0189,0.034 0.16062,0.0948 0.31496,0.13509 0.15435,0.0403 0.27834,0.10437 0.27553,0.14232 -0.003,0.0379 0.11274,0.10023 0.25675,0.13841 0.14402,0.0382 0.25981,0.097 0.25731,0.13082 -0.003,0.0338 0.10464,0.0937 0.23807,0.1331 0.13344,0.0394 0.2609,0.10567 0.28325,0.14718 0.0728,0.13524 0.62563,0.20971 0.75262,0.10138 0.064,-0.0546 0.17776,-0.11744 0.25282,-0.1397 0.0751,-0.0222 0.13907,-0.0757 0.14225,-0.11871 0.003,-0.043 0.0485,-0.0757 0.10071,-0.0725 0.11252,0.007 0.46042,-0.29542 0.46867,-0.40705 0.003,-0.0428 0.0497,-0.092 0.10342,-0.10929 0.0714,-0.023 0.0758,-0.0501 0.0165,-0.10049 -0.0506,-0.043 -0.0679,-0.53377 -0.0459,-1.30088 l 0.0353,-1.23186 0.27773,-0.0311 c 0.15275,-0.0171 0.27982,-0.0594 0.28237,-0.0939 0.003,-0.0345 0.15997,-0.0745 0.34981,-0.0888 0.18984,-0.0143 0.34713,-0.0525 0.34953,-0.085 0.003,-0.0325 0.22952,-0.0867 0.50471,-0.12061 0.2752,-0.0339 0.5023,-0.0878 0.50467,-0.11991 0.002,-0.0321 0.0838,0.0271 0.18098,0.13145 0.0972,0.10438 0.17381,0.22854 0.17031,0.27591 -0.004,0.0474 0.022,0.0882 0.0567,0.0908 0.0347,0.003 0.10455,0.10212 0.15528,0.22124 0.0978,0.22961 0.11903,0.26582 0.3345,0.57032 0.0753,0.10637 0.13372,0.23574 0.1299,0.28748 -0.004,0.0517 0.0428,0.1175 0.10362,0.14614 0.0608,0.0286 0.10799,0.087 0.10484,0.12974 -0.003,0.0427 0.0624,0.16878 0.14562,0.28013 0.13907,0.18602 0.20298,0.20626 0.7875,0.24944 0.65987,0.0488 0.93538,-0.009 0.94945,-0.19952 0.005,-0.0611 0.0396,-0.10881 0.078,-0.10597 0.0384,0.003 0.0999,-0.0956 0.13664,-0.21874 0.0367,-0.12314 0.0955,-0.22178 0.1306,-0.21918 0.0351,0.003 0.0945,-0.0983 0.13211,-0.22423 0.0376,-0.12592 0.11551,-0.24317 0.17321,-0.26056 0.0577,-0.0174 0.13412,-0.12955 0.16983,-0.24927 0.0357,-0.11971 0.0937,-0.21554 0.12875,-0.21295 0.0351,0.003 0.0939,-0.096 0.13061,-0.21918 0.0367,-0.12315 0.0993,-0.2215 0.13908,-0.21857 0.0397,0.003 0.10883,-0.0692 0.1535,-0.16028 0.0565,-0.11518 0.0799,-0.12735 0.0768,-0.04 -0.003,0.0961 0.10161,0.14599 0.44684,0.21212 0.2482,0.0476 0.44931,0.11307 0.44691,0.1456 -0.003,0.0325 0.27408,0.12326 0.6144,0.20163 0.34032,0.0784 0.64106,0.18202 0.66832,0.23032 0.0273,0.0483 0.0293,0.36951 0.004,0.71379 -0.0265,0.36594 -0.0135,0.62829 0.0308,0.63156 0.0452,0.003 0.0545,0.29543 0.0228,0.72336 -0.0473,0.64067 -0.0364,0.73568 0.10159,0.8847 0.085,0.0918 0.19937,0.17026 0.25409,0.1743 0.0547,0.004 0.0972,0.0388 0.0943,0.0772 -0.003,0.0384 0.0956,0.0999 0.21874,0.13664 0.12314,0.0368 0.22157,0.0982 0.21874,0.13663 -0.003,0.0384 0.0802,0.0761 0.1845,0.0838 0.10431,0.008 0.19198,-0.0174 0.19482,-0.0558 0.003,-0.0384 0.10634,-0.0844 0.23,-0.10209 0.12366,-0.0178 0.24585,-0.0769 0.27152,-0.13137 0.0257,-0.0545 0.1531,-0.11438 0.28318,-0.13304 0.13007,-0.0187 0.23881,-0.0654 0.24165,-0.10376 0.003,-0.0384 0.0574,-0.066 0.12133,-0.0613 0.0639,0.005 0.13866,-0.0391 0.16613,-0.0975 0.0275,-0.0583 0.15114,-0.12058 0.2748,-0.13831 0.12366,-0.0178 0.22689,-0.06 0.22939,-0.0939 0.003,-0.0339 0.0998,-0.0782 0.21627,-0.0984 0.11645,-0.0203 0.23626,-0.0707 0.26625,-0.11202 0.0527,-0.0727 1.19983,1.18581 1.19091,1.30652 -0.003,0.0325 0.0514,0.11733 0.11955,0.18862 0.2395,0.25054 0.37864,0.49539 0.30515,0.53696 -0.0408,0.0231 -0.13056,0.14929 -0.19957,0.28054 -0.069,0.13125 -0.15129,0.23673 -0.18283,0.2344 -0.0315,-0.002 -0.0607,0.0418 -0.0649,0.0979 -0.004,0.0562 -0.0816,0.17587 -0.1722,0.26593 -0.0906,0.0901 -0.16805,0.20972 -0.1722,0.26592 -0.004,0.0562 -0.041,0.0997 -0.082,0.0967 -0.0409,-0.003 -0.10214,0.0783 -0.13603,0.18065 -0.0339,0.10238 -0.0883,0.18416 -0.12103,0.18175 -0.0327,-0.003 -0.0871,0.0794 -0.12102,0.18176 -0.0339,0.10238 -0.0951,0.18367 -0.13603,0.18064 -0.0409,-0.003 -0.0832,0.11399 -0.094,0.26003 -0.0108,0.14604 0.0118,0.26785 0.0502,0.27068 0.0384,0.003 0.0848,0.10924 0.10301,0.23645 0.0183,0.1272 0.0623,0.23343 0.0979,0.23606 0.0356,0.003 0.0813,0.0746 0.10163,0.15989 0.0203,0.0853 0.11844,0.18209 0.21809,0.21507 0.0996,0.033 0.17893,0.0904 0.17618,0.12761 -0.003,0.0372 0.2937,0.0899 0.65878,0.11713 0.36508,0.0272 0.94381,0.0922 1.28606,0.14444 0.58929,0.0899 0.62158,0.10441 0.6091,0.27337 -0.007,0.0981 0.0175,0.18068 0.055,0.18345 0.0375,0.003 0.0745,0.24578 0.0823,0.54002 0.008,0.29425 0.0414,0.53701 0.0748,0.53947 0.0334,0.003 0.0694,0.21108 0.0799,0.46358 0.0148,0.35319 0.0481,0.46162 0.14439,0.47007 0.0689,0.006 0.001,0.0597 -0.14978,0.1192 -0.15123,0.0595 -0.29417,0.13126 -0.31765,0.15944 -0.0235,0.0282 -0.13796,0.0678 -0.25441,0.0881 -0.11644,0.0203 -0.21377,0.0645 -0.21627,0.0984 -0.003,0.0339 -0.10863,0.0765 -0.23583,0.0948 -0.12721,0.0182 -0.23341,0.0619 -0.236,0.097 -0.003,0.0351 -0.1088,0.0787 -0.236,0.097 -0.1272,0.0183 -0.23351,0.0632 -0.23622,0.1 -0.003,0.0367 -0.14451,0.0976 -0.3151,0.1353 -0.1706,0.0377 -0.31335,0.11146 -0.31723,0.16396 -0.004,0.0525 -0.0481,0.10585 -0.0982,0.11854 -0.1088,0.0275 -0.2404,0.83955 -0.19772,1.21998 0.02,0.17809 0.0822,0.28843 0.1863,0.33012 0.0859,0.0344 0.23942,0.16126 0.34104,0.28183 0.10161,0.12056 0.24184,0.24609 0.31163,0.27896 0.0698,0.0329 0.12428,0.095 0.1211,0.138 -0.003,0.043 0.0458,0.0821 0.10876,0.0867 0.063,0.005 0.16796,0.0811 0.23325,0.16979 0.0653,0.0887 0.14525,0.16329 0.17771,0.16568 0.0325,0.003 0.12223,0.0777 0.19952,0.1673 0.0773,0.0896 0.19173,0.16672 0.25431,0.17134 0.14979,0.0111 0.15013,0.45263 2.9e-4,0.53398 -0.034,0.0185 -0.0968,0.17687 -0.13951,0.35201 -0.0427,0.17514 -0.10339,0.31655 -0.13478,0.31423 -0.0314,-0.002 -0.116,0.18021 -0.188,0.40564 -0.072,0.22542 -0.15961,0.40773 -0.19467,0.40515 -0.0351,-0.003 -0.0701,0.0806 -0.0778,0.18495 -0.0136,0.18402 -0.0296,0.18851 -0.53873,0.1509 -0.2886,-0.0213 -0.53371,-0.072 -0.5447,-0.11257 -0.011,-0.0406 -0.41181,-0.1131 -0.89072,-0.16114 -0.80658,-0.0809 -0.88366,-0.0762 -1.046,0.0638 -0.0964,0.0831 -0.20206,0.21804 -0.23482,0.29979 -0.0328,0.0817 -0.11087,0.16411 -0.1736,0.183 -0.0627,0.0189 -0.11764,0.083 -0.12204,0.14243 -0.004,0.0594 -0.065,0.12526 -0.1348,0.14628 -0.10159,0.0306 -0.12511,0.11559 -0.11824,0.42709 0.005,0.21387 0.0441,0.4146 0.0875,0.44606 0.0434,0.0314 0.0913,0.20295 0.10643,0.38112 0.0152,0.17816 0.0558,0.32601 0.0903,0.32856 0.0345,0.003 0.0763,0.12578 0.0929,0.27384 0.0166,0.14806 0.0541,0.27097 0.0833,0.27312 0.0886,0.007 0.19451,0.7596 0.12961,0.92159 -0.0334,0.0833 -0.11064,0.14771 -0.17172,0.14319 -0.0611,-0.005 -0.13391,0.0403 -0.16182,0.0996 -0.0279,0.0593 -0.11919,0.12405 -0.20283,0.14395 -0.13408,0.0319 -0.25946,0.11822 -0.79886,0.54991 -0.0706,0.0565 -0.16577,0.10001 -0.21145,0.0966 -0.0457,-0.003 -0.14066,0.0436 -0.21107,0.10428 -0.0704,0.0607 -0.12532,0.0738 -0.12202,0.0291 0.003,-0.0447 -0.0449,-0.085 -0.10714,-0.0896 -0.0622,-0.005 -0.15075,-0.0798 -0.1967,-0.16708 -0.046,-0.0873 -0.12392,-0.16172 -0.17326,-0.16536 -0.0493,-0.004 -0.18457,-0.11661 -0.30049,-0.25103 -0.11593,-0.13442 -0.23921,-0.2465 -0.27395,-0.24907 -0.0347,-0.003 -0.15183,-0.12854 -0.26021,-0.27994 -0.10838,-0.15141 -0.27728,-0.30184 -0.37534,-0.3343 -0.0981,-0.0325 -0.17581,-0.0925 -0.17278,-0.13342 0.003,-0.0409 -0.11399,-0.0832 -0.26003,-0.094 -0.14604,-0.0108 -0.26754,0.008 -0.27001,0.0411 -0.003,0.0334 -0.21244,0.0879 -0.46661,0.12108 -0.25417,0.0332 -0.46455,0.0932 -0.46751,0.13328 -0.003,0.0401 -0.049,0.0697 -0.10232,0.0657 -0.17981,-0.0133 -0.38961,0.28572 -0.46188,0.65826 -0.0395,0.20362 -0.0972,0.36833 -0.12821,0.36604 -0.031,-0.002 -0.0993,0.2501 -0.15173,0.56087 -0.0524,0.31078 -0.12207,0.56307 -0.15475,0.56066 -0.0327,-0.003 -0.0884,0.13361 -0.12382,0.30226 -0.0354,0.16866 -0.0814,0.32126 -0.10204,0.3391 -0.0207,0.0179 -0.44308,0.0297 -0.93863,0.0264 -0.56807,-0.004 -0.91429,0.0257 -0.93693,0.08 -0.0525,0.12578 -0.25231,0.0898 -0.24246,-0.0437 z m 1.9544,-4.84046 c 0.0263,-0.0346 0.2117,-0.0749 0.41205,-0.0894 0.20035,-0.0146 0.36614,-0.0517 0.36842,-0.0825 0.002,-0.0308 0.2121,-0.0832 0.46627,-0.11643 0.25417,-0.0332 0.46435,-0.0905 0.46706,-0.12725 0.003,-0.0368 0.10612,-0.0814 0.22979,-0.0991 0.12366,-0.0178 0.24732,-0.08 0.27479,-0.13831 0.0275,-0.0583 0.10223,-0.10221 0.16613,-0.0975 0.0639,0.005 0.1187,-0.0256 0.12178,-0.0673 0.003,-0.0417 0.0579,-0.072 0.12178,-0.0673 0.0639,0.005 0.13902,-0.0399 0.16693,-0.0992 0.0279,-0.0593 0.12468,-0.12536 0.21503,-0.14686 0.15308,-0.0364 1.59337,-1.22834 1.60047,-1.32448 0.002,-0.024 0.0769,-0.11182 0.16698,-0.19523 0.0901,-0.0834 0.1668,-0.19278 0.17051,-0.24303 0.004,-0.0503 0.0594,-0.10724 0.12377,-0.12664 0.0644,-0.0194 0.12088,-0.0875 0.1256,-0.15144 0.005,-0.0639 0.04,-0.11385 0.0784,-0.11101 0.0384,0.003 0.0999,-0.0956 0.13663,-0.21875 0.0368,-0.12314 0.0967,-0.22169 0.1332,-0.21899 0.0365,0.003 0.0976,-0.11292 0.13583,-0.25694 0.0382,-0.14401 0.0959,-0.25989 0.12823,-0.2575 0.0323,0.002 0.0932,-0.14758 0.13522,-0.33326 0.042,-0.18568 0.10328,-0.33562 0.13613,-0.3332 0.0924,0.007 0.32143,-1.15719 0.37722,-1.91722 0.0572,-0.77835 0.0126,-2.03968 -0.0743,-2.1033 -0.032,-0.0235 -0.0727,-0.17233 -0.0905,-0.33087 -0.0178,-0.15854 -0.06,-0.2903 -0.0937,-0.2928 -0.0338,-0.003 -0.0763,-0.10861 -0.0946,-0.23581 -0.0183,-0.12721 -0.0619,-0.23341 -0.097,-0.236 -0.0351,-0.003 -0.0787,-0.10879 -0.097,-0.236 -0.0183,-0.1272 -0.0609,-0.23333 -0.0948,-0.23583 -0.0339,-0.003 -0.0769,-0.0924 -0.0956,-0.1997 -0.0187,-0.10733 -0.0964,-0.26753 -0.17267,-0.356 -0.0763,-0.0885 -0.13538,-0.2063 -0.13127,-0.26184 0.004,-0.0555 -0.0745,-0.15296 -0.1747,-0.21649 -0.10019,-0.0635 -0.17907,-0.1575 -0.17528,-0.20881 0.008,-0.11463 -0.66296,-0.921 -0.77368,-0.92918 -0.0439,-0.003 -0.15265,-0.0971 -0.24163,-0.20855 -0.089,-0.11145 -0.19931,-0.20541 -0.24522,-0.2088 -0.0459,-0.003 -0.11496,-0.0771 -0.15345,-0.16389 -0.0385,-0.0867 -0.12,-0.16143 -0.18112,-0.16594 -0.0611,-0.005 -0.10901,-0.0369 -0.10641,-0.0721 0.003,-0.0351 -0.12882,-0.11486 -0.29203,-0.17719 -0.1632,-0.0623 -0.2946,-0.1423 -0.29198,-0.17771 0.003,-0.0354 -0.11308,-0.0956 -0.25709,-0.1338 -0.14402,-0.0382 -0.25966,-0.099 -0.25699,-0.13519 0.003,-0.0362 -0.13844,-0.10073 -0.31358,-0.14346 -0.17514,-0.0427 -0.33522,-0.1089 -0.35573,-0.14702 -0.0205,-0.0381 -0.24711,-0.10704 -0.50356,-0.15314 -0.25646,-0.0461 -0.46412,-0.1131 -0.46148,-0.14889 0.003,-0.0358 -0.43899,-0.0978 -0.98142,-0.1379 -0.54243,-0.0401 -0.98839,-0.0436 -0.99103,-0.008 -0.003,0.0357 -0.25254,0.0697 -0.55532,0.0754 -0.30279,0.006 -0.57136,0.0392 -0.59682,0.0743 -0.0255,0.0351 -0.17601,0.0784 -0.33455,0.0962 -0.15854,0.0178 -0.2903,0.06 -0.29279,0.0937 -0.003,0.0338 -0.10861,0.0763 -0.23582,0.0946 -0.12721,0.0183 -0.23328,0.0602 -0.23571,0.0932 -0.003,0.033 -0.16124,0.0916 -0.35288,0.13034 -0.19165,0.0387 -0.35072,0.10114 -0.3535,0.13875 -0.003,0.0376 -0.0665,0.0868 -0.14156,0.10927 -0.14896,0.0446 -0.20902,0.083 -0.61698,0.39448 -0.45886,0.35031 -0.57012,0.42334 -0.70848,0.46503 -0.0732,0.0221 -0.13681,0.0907 -0.14138,0.15263 -0.005,0.0619 -0.13637,0.21974 -0.29288,0.35078 -0.15652,0.13105 -0.28633,0.26205 -0.28848,0.29112 -0.002,0.0291 -0.0926,0.12364 -0.20095,0.21015 -0.10837,0.0865 -0.22787,0.25044 -0.26556,0.36429 -0.0377,0.11385 -0.11451,0.22086 -0.17073,0.2378 -0.0562,0.0169 -0.13144,0.12875 -0.16715,0.24846 -0.0357,0.11972 -0.0948,0.21546 -0.13134,0.21276 -0.0365,-0.003 -0.0976,0.11293 -0.13582,0.25694 -0.0382,0.14402 -0.0968,0.25983 -0.13018,0.25736 -0.0334,-0.003 -0.0957,0.13881 -0.13846,0.31395 -0.0427,0.17515 -0.10658,0.33402 -0.14187,0.35305 -0.0353,0.0191 -0.13793,0.46338 -0.2281,0.98744 -0.12603,0.73247 -0.15842,1.15204 -0.14007,1.81418 0.0131,0.47374 0.0528,0.88286 0.0881,0.90917 0.0353,0.0263 0.0754,0.22885 0.089,0.45011 0.0137,0.22126 0.0551,0.40453 0.0921,0.40726 0.037,0.003 0.0824,0.0919 0.1009,0.19815 0.0185,0.10625 0.0613,0.19522 0.0952,0.19773 0.0339,0.003 0.0765,0.10863 0.0948,0.23584 0.0183,0.1272 0.0619,0.2334 0.097,0.23599 0.0351,0.003 0.0791,0.11114 0.0977,0.24121 0.0187,0.13007 0.0806,0.25845 0.13755,0.28529 0.057,0.0268 0.10008,0.0967 0.0958,0.15522 -0.004,0.0585 0.0561,0.16993 0.13427,0.24755 0.0782,0.0776 0.14007,0.16901 0.13755,0.2031 -0.007,0.0908 1.09386,1.35758 1.18537,1.36434 0.0428,0.003 0.1177,0.0724 0.1665,0.15391 0.0488,0.0815 0.16375,0.17811 0.25544,0.21471 0.0917,0.0366 0.16456,0.0957 0.16193,0.13126 -0.003,0.0356 0.0932,0.0939 0.21289,0.12966 0.11971,0.0357 0.23288,0.11545 0.25149,0.1772 0.0186,0.0617 0.0861,0.11611 0.15,0.12083 0.0639,0.005 0.11406,0.0373 0.11147,0.0723 -0.003,0.0351 0.18818,0.12438 0.42393,0.19849 0.23576,0.0741 0.44618,0.16469 0.46762,0.20129 0.0214,0.0366 0.21408,0.10053 0.4281,0.14205 0.21402,0.0415 0.38711,0.10301 0.38462,0.13664 -0.003,0.0336 0.15652,0.0884 0.35334,0.12162 0.55398,0.0936 2.47061,0.16643 2.52417,0.0959 z"
           style="fill:#ffffff;fill-opacity:1;stroke:#ffffff;stroke-width:0.282222;stroke-opacity:0.825" />
        <ellipse
           ry="7.8176928"
           rx="6.5459299"
           cy="148.89224"
           cx="122.15763"
           id="path3965"
           style="fill:#ffffff;fill-opacity:1;stroke:#6cc24a;stroke-width:2.09022;stroke-miterlimit:4;stroke-dasharray:none;stroke-opacity:1" />
      </g>
      <text
         xml:space="preserve"
         style="font-style:normal;font-variant:normal;font-weight:normal;font-stretch:normal;font-size:22.5778px;line-height:0%;font-family:sans-serif;-inkscape-font-specification:'sans-serif, Normal';font-variant-ligatures:normal;font-variant-caps:normal;font-variant-numeric:normal;font-variant-east-asian:normal;letter-spacing:0px;word-spacing:0px;fill:#6e7ca0;fill-opacity:1;stroke:none;stroke-width:0.264583"
         x="219.04898"
         y="140.32701"
         id="text5505"><tspan
           sodipodi:role="line"
           id="tspan5507"
           x="219.04898"
           y="140.32701"
           style="font-style:normal;font-variant:normal;font-weight:normal;font-stretch:normal;font-size:22.5778px;line-height:1.25;font-family:sans-serif;-inkscape-font-specification:'sans-serif, Normal';font-variant-ligatures:normal;font-variant-caps:normal;font-variant-numeric:normal;font-variant-east-asian:normal;fill:#6e7ca0;fill-opacity:1;stroke-width:0.264583">Laboratório de Robótica,</tspan><tspan
           sodipodi:role="line"
           x="219.04898"
           y="168.54926"
           style="font-style:normal;font-variant:normal;font-weight:normal;font-stretch:normal;font-size:22.5778px;line-height:1.25;font-family:sans-serif;-inkscape-font-specification:'sans-serif, Normal';font-variant-ligatures:normal;font-variant-caps:normal;font-variant-numeric:normal;font-variant-east-asian:normal;fill:#6e7ca0;fill-opacity:1;stroke-width:0.264583"
           id="tspan7564">Sistemas Inteligentes e Complexos</tspan></text>
    </g>
  </g>
</svg>
