<?xml version="1.0" encoding="UTF-8" standalone="no"?>
<!-- Created with Inkscape (http://www.inkscape.org/) -->

<svg
   width="648.59967"
   height="500.51697"
   id="svg2"
   version="1.1"
   inkscape:version="1.2.1 (9c6d41e410, 2022-07-14, custom)"
   sodipodi:docname="logo_RobSIC_full.svg"
   inkscape:export-filename="../logo_RobSIC_full.png"
   inkscape:export-xdpi="90"
   inkscape:export-ydpi="90"
   xmlns:inkscape="http://www.inkscape.org/namespaces/inkscape"
   xmlns:sodipodi="http://sodipodi.sourceforge.net/DTD/sodipodi-0.dtd"
   xmlns:xlink="http://www.w3.org/1999/xlink"
   xmlns="http://www.w3.org/2000/svg"
   xmlns:svg="http://www.w3.org/2000/svg"
   xmlns:rdf="http://www.w3.org/1999/02/22-rdf-syntax-ns#"
   xmlns:cc="http://creativecommons.org/ns#"
   xmlns:dc="http://purl.org/dc/elements/1.1/">
  <defs
     id="defs4">
    <linearGradient
       id="linearGradient5497">
      <stop
         style="stop-color:#599e47;stop-opacity:1;"
         offset="0"
         id="stop5499" />
      <stop
         style="stop-color:#a3dd94;stop-opacity:0;"
         offset="1"
         id="stop5501" />
    </linearGradient>
    <linearGradient
       id="linearGradient5477">
      <stop
         style="stop-color:#3da900;stop-opacity:1;"
         offset="0"
         id="stop5479" />
      <stop
         id="stop5493"
         offset="0.5"
         style="stop-color:#3da900;stop-opacity:0.49803922;" />
      <stop
         style="stop-color:#3da900;stop-opacity:0;"
         offset="1"
         id="stop5481" />
    </linearGradient>
    <linearGradient
       id="linearGradient5448"
       inkscape:swatch="solid">
      <stop
         style="stop-color:#5ab228;stop-opacity:0.5981735;"
         offset="0"
         id="stop5450" />
    </linearGradient>
    <linearGradient
       id="linearGradient5477-6">
      <stop
         style="stop-color:#7cbf56;stop-opacity:1;"
         offset="0"
         id="stop5479-2" />
      <stop
         id="stop5493-9"
         offset="0.5"
         style="stop-color:#7bbf55;stop-opacity:0.75197953;" />
      <stop
         style="stop-color:#7cbf56;stop-opacity:0;"
         offset="1"
         id="stop5481-1" />
    </linearGradient>
    <linearGradient
       id="linearGradient906">
      <stop
         style="stop-color:#7cbf56;stop-opacity:1;"
         offset="0"
         id="stop900" />
      <stop
         id="stop902"
         offset="0.5"
         style="stop-color:#9fcb81;stop-opacity:1;" />
      <stop
         style="stop-color:#d9e3cf;stop-opacity:1;"
         offset="1"
         id="stop904" />
    </linearGradient>
    <linearGradient
       id="linearGradient5497-9">
      <stop
         style="stop-color:#7cbf56;stop-opacity:1;"
         offset="0"
         id="stop5499-2" />
      <stop
         style="stop-color:#cee4c5;stop-opacity:1;"
         offset="1"
         id="stop5501-2" />
    </linearGradient>
    <linearGradient
       inkscape:collect="always"
       id="linearGradient911">
      <stop
         style="stop-color:#d6e4cd;stop-opacity:1;"
         offset="0"
         id="stop907" />
      <stop
         style="stop-color:#6cc24a;stop-opacity:1;"
         offset="1"
         id="stop909" />
    </linearGradient>
    <radialGradient
       inkscape:collect="always"
       xlink:href="#linearGradient911"
       id="radialGradient915-6"
       cx="387.73386"
       cy="501.02728"
       fx="387.73386"
       fy="501.02728"
       r="168.14024"
       gradientTransform="matrix(0.26830994,-1.1026174,1.5654111,0.38092602,-504.42574,737.94621)"
       gradientUnits="userSpaceOnUse" />
  </defs>
  <sodipodi:namedview
     id="base"
     pagecolor="#ffffff"
     bordercolor="#666666"
     borderopacity="1.0"
     inkscape:pageopacity="0.0"
     inkscape:pageshadow="2"
     inkscape:zoom="0.59"
     inkscape:cx="132.20339"
     inkscape:cy="358.47458"
     inkscape:document-units="px"
     inkscape:current-layer="layer1"
     showgrid="false"
     inkscape:window-width="1440"
     inkscape:window-height="831"
     inkscape:window-x="0"
     inkscape:window-y="0"
     inkscape:window-maximized="1"
     fit-margin-top="0"
     fit-margin-left="0"
     fit-margin-right="0"
     fit-margin-bottom="0"
     inkscape:showpageshadow="2"
     inkscape:pagecheckerboard="0"
     inkscape:deskcolor="#d1d1d1"
     showguides="true" />
  <metadata
     id="metadata7">
    <rdf:RDF>
      <cc:Work
         rdf:about="">
        <dc:format>image/svg+xml</dc:format>
        <dc:type
           rdf:resource="http://purl.org/dc/dcmitype/StillImage" />
      </cc:Work>
    </rdf:RDF>
  </metadata>
  <g
     inkscape:label="Layer 1"
     inkscape:groupmode="layer"
     id="layer1"
     transform="translate(-83.722579,-323.17673)">
    <g
       id="g5572">
      <text
         xml:space="preserve"
         style="font-style:normal;font-weight:normal;font-size:40px;line-height:0%;font-family:sans-serif;text-align:center;letter-spacing:0px;word-spacing:0px;text-anchor:middle;fill:#6e7ca0;fill-opacity:1;stroke:none"
         x="407.9024"
         y="764.09369"
         id="text5505"><tspan
           sodipodi:role="line"
           id="tspan5507"
           x="407.9024"
           y="764.09369"
           style="font-style:normal;font-variant:normal;font-weight:normal;font-stretch:normal;font-size:40px;line-height:1.25;font-family:sans-serif;-inkscape-font-specification:'sans-serif, Normal';font-variant-ligatures:normal;font-variant-caps:normal;font-variant-numeric:normal;font-variant-east-asian:normal;text-align:center;text-anchor:middle;fill:#6e7ca0;fill-opacity:1">Laboratório de Robótica,</tspan><tspan
           sodipodi:role="line"
           x="407.9024"
           y="814.09369"
           style="font-style:normal;font-variant:normal;font-weight:normal;font-stretch:normal;font-size:40px;line-height:1.25;font-family:sans-serif;-inkscape-font-specification:'sans-serif, Normal';font-variant-ligatures:normal;font-variant-caps:normal;font-variant-numeric:normal;font-variant-east-asian:normal;text-align:center;text-anchor:middle;fill:#6e7ca0;fill-opacity:1"
           id="tspan609">Sistemas Inteligentes e Complexos</tspan></text>
      <g
         id="g5038"
         transform="matrix(1.0666667,0,0,1.0666667,-32.71708,-14.438847)">
        <path
           id="path2996"
           style="fill:url(#radialGradient915-6);fill-opacity:1;stroke:none"
           d="m 419.46426,316.51462 c -17.93278,0 -33.039,11.86533 -37.68676,28.03162 l -91.34399,6.12487 c -6.43414,-14.20541 -20.91199,-24.12597 -37.75086,-24.12597 -22.81598,0 -41.31225,18.19631 -41.31225,40.62561 0,22.42927 18.49627,40.62561 41.31225,40.62561 5.73857,0 11.19077,-1.14029 16.15723,-3.219 l 57.09411,66.53137 c -2.11759,4.35879 -3.70975,9.01449 -4.71862,13.8739 l -85.62561,-14.78027 c -2.33205,-22.72974 -21.85688,-40.46814 -45.59326,-40.46814 -25.30734,0 -45.81299,20.18386 -45.81299,45.06226 0,24.87837 20.50565,45.03112 45.81299,45.03112 19.49599,0 36.12993,-11.97353 42.74963,-28.8446 l 87.90527,15.1886 c 1.08333,7.09417 3.41953,13.81223 6.78223,19.87426 l -31.18836,29.43787 c -3.45459,-1.16245 -7.14378,-1.81274 -10.99914,-1.81274 -18.7764,0 -34.00086,14.94758 -34.00086,33.40576 0,18.45815 15.22446,33.43872 34.00086,33.43872 18.7764,0 33.99902,-14.98057 33.99902,-33.43872 0,-7.00238 -2.19201,-13.50425 -5.93628,-18.87451 l 27.37427,-25.87464 c 10.85379,9.46748 25.12943,15.24903 40.78125,15.24903 2.33616,0 4.63831,-0.12596 6.90674,-0.37537 l 20.65612,44.90661 c -1.09868,0.72968 -2.14223,1.52948 -3.16589,2.35108 a 45.562515,44.991066 0 0 0 -2.32361,2.00134 45.562515,44.991066 0 0 0 -0.16296,0.16113 45.562515,44.991066 0 0 0 -0.3479,0.34424 c -0.55303,0.52669 -1.10218,1.05408 -1.62781,1.60767 a 45.562515,44.991066 0 0 0 -2.21924,2.49206 c -0.46521,0.56661 -0.88896,1.16418 -1.32751,1.75232 a 45.562515,44.991066 0 0 0 -4.76258,7.8003 45.562515,44.991066 0 0 0 -0.0146,0.0256 c -2.71869,5.73203 -4.26635,12.10198 -4.26635,18.83972 0,13.54994 6.12716,25.64706 15.76904,33.8855 a 45.562515,44.991066 0 0 1 -0.89539,-1.0199 45.562515,44.991066 0 0 0 2.32178,1.96472 45.562515,44.991066 0 0 1 -1.25427,-0.79651 c 3.19776,2.70501 6.7669,4.99032 10.64209,6.75476 a 45.562515,44.991066 0 0 1 -1.25977,-0.80017 45.562515,44.991066 0 0 0 3.12928,1.40259 45.562515,44.991066 0 0 1 -1.56556,-0.4541 c 3.85275,1.72013 7.98112,2.94905 12.31385,3.56873 a 45.562515,44.991066 0 0 1 -1.70838,-0.49439 45.562515,44.991066 0 0 0 8.21778,0.82947 45.562515,44.991066 0 0 0 2.01416,-0.14282 45.562515,44.991066 0 0 1 -2.03797,0.2655 45.562515,44.991066 0 0 1 -6.48559,-0.45776 c 2.17461,0.31099 4.38093,0.52551 6.64306,0.52551 25.30734,0 45.81116,-20.15273 45.81116,-45.03113 0,-15.69822 -8.19876,-29.46352 -20.58655,-37.51465 a 45.562515,44.991066 0 0 0 -1.34766,-0.86059 c -0.37002,-0.22258 -0.73274,-0.45405 -1.10961,-0.66651 a 45.562515,44.991066 0 0 0 -22.901,-6.09924 45.562515,44.991066 0 0 0 -5.77698,0.40833 l -19.99695,-43.45459 c 20.26759,-9.88267 34.18762,-30.40896 34.18762,-54.15711 0,-26.61809 -17.50322,-49.21583 -41.81213,-57.28088 l 14.12475,-46.56189 c 1.38796,0.14633 2.79129,0.24903 4.21875,0.24903 21.63368,0 39.15711,-17.23275 39.15711,-38.49976 0,-21.26701 -17.52343,-38.53088 -39.15711,-38.53088 z M 381.7775,365.5466 c 2.33054,8.09466 7.28716,15.07951 13.90686,20.06104 l -15.50171,51.09374 c -16.13055,0.32611 -30.71582,6.78023 -41.49902,17.0636 l -53.15552,-61.93725 c 4.48365,-5.7678 7.43891,-12.76715 8.2489,-20.37598 z m 7.18689,273.68041 a 45.562515,44.991066 0 0 0 -0.007,0.1062 45.562515,44.991066 0 0 0 0.0421,0.59327 45.562515,44.991066 0 0 1 -0.0678,-0.47058 45.562515,44.991066 0 0 1 0.033,-0.22889 z" />
        <text
           id="text3125-1"
           y="538.97144"
           x="271.15225"
           style="font-style:normal;font-weight:normal;font-size:126.633px;line-height:125%;font-family:Sans;letter-spacing:0px;word-spacing:0px;display:inline;fill:#6e7ca0;fill-opacity:1;stroke:none"
           xml:space="preserve"><tspan
             y="538.97144"
             x="271.15225"
             id="tspan3127-8"
             sodipodi:role="line">R  bSIC</tspan></text>
        <path
           inkscape:connector-curvature="0"
           id="path3963-7"
           d="m 377.41673,540.08599 c 0.0164,-0.22176 -0.0857,-0.41174 -0.22685,-0.42217 -0.14114,-0.0104 -0.30478,-0.4482 -0.36363,-0.97283 -0.0588,-0.52463 -0.21451,-0.96181 -0.3459,-0.97152 -0.13139,-0.01 -0.21719,-0.31141 -0.19067,-0.67047 0.0265,-0.35905 -0.10635,-0.83205 -0.29529,-1.05113 -0.18892,-0.21906 -0.38348,-1.03267 -0.43236,-1.80803 -0.0489,-0.77536 -0.185,-1.41684 -0.30252,-1.42552 -0.11752,-0.009 -0.25881,-0.41822 -0.31399,-0.91009 -0.1325,-1.18127 -0.93454,-1.93238 -2.34723,-2.19817 -0.63361,-0.1192 -1.14496,-0.31235 -1.13633,-0.4292 0.009,-0.11686 -0.75341,-0.35274 -1.69343,-0.52421 l -1.70913,-0.31174 -3.70789,3.21154 c -2.48079,2.14872 -3.86119,3.16782 -4.17111,3.07938 -0.25477,-0.0727 -0.45494,-0.24428 -0.44482,-0.38128 0.0101,-0.137 -0.16684,-0.26278 -0.39324,-0.27951 -0.22642,-0.0167 -0.46559,-0.20939 -0.53152,-0.42816 -0.066,-0.21877 -0.46691,-0.50129 -0.8911,-0.62786 -0.42418,-0.12659 -0.76374,-0.33183 -0.75455,-0.45618 0.009,-0.12435 -0.3403,-0.3326 -0.77664,-0.46278 -0.43634,-0.1302 -0.78466,-0.35434 -0.77404,-0.49813 0.0106,-0.14379 -0.33423,-0.41475 -0.76635,-0.60213 -0.62956,-0.273 -0.77421,-0.49569 -0.72803,-1.12082 0.0317,-0.42908 0.16174,-0.77244 0.28899,-0.76304 0.12725,0.009 0.35174,-0.60339 0.49886,-1.36174 0.14716,-0.75835 0.37654,-1.44074 0.50983,-1.51642 0.27047,-0.15358 1.1219,-3.50199 1.21665,-4.78473 0.0437,-0.59145 -0.18739,-1.10631 -0.81227,-1.80978 -0.48034,-0.54074 -0.86642,-1.07694 -0.85795,-1.19156 0.008,-0.11462 -0.45867,-0.72076 -1.0381,-1.34699 l -1.05348,-1.1386 -1.76408,0.0501 c -0.97024,0.0275 -1.83519,0.1438 -1.92211,0.25839 -0.0869,0.1146 -0.89038,0.24387 -1.7855,0.28728 -0.89512,0.0434 -1.69463,0.16454 -1.77668,0.26918 -0.082,0.10464 -0.74108,0.22532 -1.46449,0.26815 -1.16503,0.069 -1.32679,0.0155 -1.41587,-0.46843 -0.0553,-0.30049 -0.19171,-0.55307 -0.3031,-0.5613 -0.11138,-0.008 -0.31472,-0.57056 -0.45185,-1.24962 -0.13713,-0.67907 -0.34495,-1.24172 -0.46184,-1.25036 -0.11688,-0.009 -0.26394,-0.37421 -0.32679,-0.81239 -0.0629,-0.43818 -0.28341,-0.87634 -0.49011,-0.97369 -0.2067,-0.0973 -0.36214,-0.36223 -0.34541,-0.58865 0.0167,-0.2264 -0.0906,-0.42058 -0.2384,-0.4315 -0.43249,-0.032 -0.23377,-1.0447 0.31305,-1.59544 0.27659,-0.27858 0.60659,-0.49883 0.73331,-0.48947 0.12673,0.009 1.60253,-1.16055 3.27956,-2.59979 l 3.04915,-2.61681 -0.14176,-2.88977 c -0.16612,-3.38603 -0.39399,-3.78158 -2.51998,-4.37438 -0.79498,-0.22167 -1.43812,-0.50182 -1.4292,-0.62256 0.009,-0.12073 -0.4013,-0.33022 -0.91158,-0.46551 -0.51029,-0.13526 -0.92087,-0.33977 -0.91241,-0.45437 0.008,-0.1146 -0.52291,-0.33021 -1.18085,-0.47913 -0.65793,-0.14891 -1.18857,-0.37468 -1.17918,-0.50173 0.009,-0.12703 -0.35579,-0.34222 -0.81149,-0.47817 -0.4557,-0.13595 -0.70381,-0.31598 -0.55134,-0.40005 0.15246,-0.0841 0.47202,-1.65461 0.71011,-3.49011 0.23809,-1.83549 0.53233,-3.39487 0.65387,-3.46529 0.12154,-0.0704 0.31472,-0.33395 0.42929,-0.58562 0.14456,-0.31755 0.49883,-0.43614 1.15758,-0.38748 0.5221,0.0386 0.95706,-0.0352 0.96657,-0.16397 0.01,-0.12876 0.99124,-0.24704 2.18162,-0.26284 1.19038,-0.0158 2.17265,-0.14139 2.18282,-0.27908 0.0102,-0.13768 0.47223,-0.21847 1.0268,-0.17954 1.55923,0.10916 2.22855,-0.10672 2.45577,-0.79317 0.11435,-0.34542 0.30225,-0.62107 0.41761,-0.61255 0.11537,0.009 0.31815,-0.39333 0.45064,-0.89301 0.13247,-0.49967 0.37663,-0.94288 0.54252,-0.98488 0.16591,-0.042 0.40979,-0.70816 0.54197,-1.48034 0.20407,-1.19228 0.15986,-1.49082 -0.29342,-1.98027 -0.29356,-0.31699 -0.52545,-0.68841 -0.51533,-0.82541 0.0101,-0.13698 -0.31309,-0.67302 -0.71822,-1.19119 -1.28405,-1.64228 -1.48314,-1.93766 -1.46565,-2.17442 0.009,-0.12716 -0.38112,-0.7212 -0.86779,-1.32008 -1.04117,-1.28122 -0.94428,-2.02973 0.39342,-3.0393 0.46387,-0.35008 0.85065,-0.73461 0.85951,-0.85452 0.009,-0.1199 0.4052,-0.54594 0.88075,-0.94675 0.47556,-0.4008 0.87322,-0.84447 0.88367,-0.98593 0.0104,-0.14145 0.42794,-0.60987 0.92775,-1.04093 0.72275,-0.62332 1.04872,-0.73742 1.59256,-0.55742 0.37608,0.12445 0.73855,0.32481 0.80547,0.44518 0.0669,0.12037 0.56913,0.33578 1.11602,0.47868 0.54689,0.1429 0.98622,0.36982 0.97629,0.50427 -0.01,0.13444 0.39945,0.35515 0.90974,0.49045 0.51029,0.13526 0.92056,0.34388 0.91172,0.46353 -0.009,0.11964 0.37077,0.33186 0.84356,0.47159 0.4728,0.13974 0.92443,0.37443 1.00364,0.52153 0.25799,0.47918 2.21679,0.74304 2.66677,0.35922 0.22672,-0.19339 0.62983,-0.41614 0.89579,-0.495 0.26597,-0.0788 0.49279,-0.26815 0.50406,-0.42063 0.0113,-0.15248 0.17184,-0.26816 0.35683,-0.25706 0.39869,0.0234 1.63142,-1.04679 1.66064,-1.44233 0.0112,-0.15164 0.1761,-0.32591 0.36644,-0.38724 0.25288,-0.0815 0.26861,-0.17738 0.0584,-0.35606 -0.17914,-0.15227 -0.24044,-1.8913 -0.16247,-4.6094 l 0.12519,-4.36487 0.98409,-0.11039 c 0.54126,-0.0607 0.9915,-0.21049 1.00054,-0.33282 0.009,-0.12233 0.5668,-0.26384 1.23946,-0.31447 0.67268,-0.0506 1.23,-0.18614 1.23849,-0.30115 0.009,-0.11502 0.81326,-0.30732 1.78836,-0.42735 0.97512,-0.12003 1.7798,-0.31123 1.78819,-0.42489 0.008,-0.11366 0.29697,0.0959 0.64128,0.46579 0.34431,0.36985 0.61587,0.80978 0.60347,0.97764 -0.0124,0.16785 0.078,0.31261 0.20085,0.32169 0.12287,0.009 0.37046,0.36183 0.55022,0.7839 0.3465,0.81361 0.42174,0.94189 1.18522,2.02084 0.2667,0.37691 0.47383,0.83529 0.46029,1.01862 -0.0135,0.18333 0.15168,0.41635 0.36716,0.51783 0.21549,0.10145 0.38264,0.30836 0.37146,0.45972 -0.0112,0.15136 0.22101,0.59801 0.51598,0.99256 0.49278,0.65915 0.71923,0.73087 2.79038,0.88387 2.33811,0.17271 3.31433,-0.0324 3.36416,-0.70698 0.016,-0.21656 0.14044,-0.38553 0.27654,-0.37548 0.13609,0.0101 0.35395,-0.33872 0.48414,-0.77506 0.1302,-0.43634 0.33843,-0.78583 0.46278,-0.77664 0.12435,0.009 0.335,-0.34834 0.46811,-0.79451 0.13313,-0.44617 0.40929,-0.86162 0.61371,-0.92322 0.20444,-0.0616 0.47523,-0.45906 0.60178,-0.88325 0.1266,-0.42418 0.33185,-0.76373 0.4562,-0.75455 0.12435,0.009 0.3326,-0.3403 0.46278,-0.77664 0.1302,-0.43634 0.35194,-0.78483 0.49281,-0.77443 0.14085,0.0104 0.38562,-0.24517 0.54389,-0.56794 0.20013,-0.40811 0.28298,-0.45123 0.27203,-0.14159 -0.012,0.34064 0.36003,0.51728 1.58327,0.75162 0.87946,0.16847 1.59206,0.40063 1.58354,0.51588 -0.009,0.11525 0.97115,0.43676 2.17701,0.71446 1.20587,0.27771 2.2715,0.64495 2.36806,0.81609 0.0966,0.17115 0.10372,1.30927 0.0159,2.52916 -0.0938,1.29664 -0.048,2.22623 0.10911,2.23784 0.16027,0.0118 0.19295,1.04679 0.0809,2.56307 -0.16769,2.2701 -0.12899,2.60675 0.35996,3.13477 0.3013,0.32535 0.70645,0.60326 0.90034,0.61758 0.19389,0.0143 0.3443,0.1374 0.33425,0.2735 -0.0101,0.1361 0.33872,0.35395 0.77507,0.48414 0.43633,0.1302 0.78511,0.34804 0.77506,0.48414 -0.01,0.13609 0.28414,0.26979 0.65375,0.29709 0.36961,0.0273 0.68024,-0.0617 0.6903,-0.1978 0.01,-0.1361 0.37679,-0.29889 0.81497,-0.36174 0.43818,-0.0629 0.87112,-0.27232 0.96208,-0.46547 0.091,-0.19316 0.54249,-0.40529 1.00338,-0.4714 0.46088,-0.0661 0.84618,-0.23155 0.85624,-0.36765 0.01,-0.1361 0.20352,-0.23377 0.42992,-0.21705 0.22642,0.0167 0.49131,-0.1387 0.58866,-0.34541 0.0973,-0.20671 0.53551,-0.42725 0.97368,-0.4901 0.43818,-0.0629 0.80395,-0.21252 0.81282,-0.33259 0.009,-0.12007 0.35371,-0.27702 0.76631,-0.34877 0.41261,-0.0718 0.83713,-0.25036 0.94339,-0.39693 0.18671,-0.25752 4.25136,4.20168 4.21977,4.6294 -0.009,0.11499 0.18214,0.41575 0.42361,0.66836 0.8486,0.88773 1.34163,1.7553 1.08122,1.9026 -0.14437,0.0817 -0.46259,0.52899 -0.70713,0.99405 -0.24454,0.46505 -0.53606,0.8388 -0.64781,0.83054 -0.11176,-0.008 -0.21524,0.14793 -0.22995,0.34708 -0.0147,0.19915 -0.28927,0.62315 -0.61015,0.94225 -0.32087,0.31909 -0.59544,0.74311 -0.61015,0.94224 -0.0147,0.19915 -0.14541,0.35332 -0.29043,0.34261 -0.14503,-0.0107 -0.36193,0.27733 -0.482,0.64009 -0.12005,0.36276 -0.31304,0.65256 -0.42884,0.64401 -0.11578,-0.009 -0.30876,0.28126 -0.42883,0.64402 -0.12005,0.36276 -0.33697,0.65079 -0.482,0.64008 -0.14502,-0.0107 -0.29496,0.4039 -0.33319,0.92136 -0.0382,0.51746 0.0419,0.94906 0.17796,0.95911 0.1361,0.0101 0.30036,0.38706 0.36501,0.83779 0.0647,0.45073 0.22074,0.82714 0.34688,0.83646 0.12614,0.009 0.28819,0.26424 0.3601,0.56651 0.0719,0.30228 0.41966,0.64521 0.77275,0.76208 0.3531,0.11683 0.63402,0.32034 0.62428,0.45216 -0.01,0.13181 1.04068,0.31858 2.33426,0.41501 1.29359,0.0964 3.34419,0.32675 4.55689,0.51182 2.08803,0.31861 2.20245,0.36996 2.15823,0.96863 -0.0257,0.34769 0.062,0.64021 0.19483,0.65002 0.13284,0.01 0.26401,0.87087 0.2915,1.91346 0.0275,1.0426 0.14679,1.90277 0.26511,1.91151 0.11833,0.009 0.24576,0.74791 0.28318,1.64258 0.0524,1.25149 0.17037,1.63566 0.51163,1.6656 0.24399,0.021 0.005,0.21147 -0.53072,0.42236 -0.53585,0.21087 -1.04235,0.46511 -1.12554,0.56496 -0.0832,0.0999 -0.48885,0.24025 -0.90144,0.31199 -0.41261,0.0718 -0.75745,0.22869 -0.76632,0.34876 -0.009,0.12007 -0.38491,0.27121 -0.83564,0.33586 -0.45073,0.0647 -0.82702,0.2193 -0.83621,0.34365 -0.009,0.12435 -0.38549,0.27899 -0.83621,0.34365 -0.45073,0.0647 -0.82739,0.22405 -0.837,0.3542 -0.01,0.13017 -0.51204,0.34589 -1.11651,0.4794 -0.60447,0.13349 -1.11028,0.39494 -1.12403,0.58098 -0.0137,0.18604 -0.17028,0.37505 -0.34785,0.42003 -0.38551,0.0976 -0.85182,2.97477 -0.7006,4.32275 0.0708,0.63104 0.29142,1.022 0.66012,1.16972 0.30458,0.12207 0.84837,0.5714 1.20841,0.99859 0.36005,0.4272 0.85694,0.872 1.10422,0.98845 0.24727,0.11643 0.44036,0.3365 0.4291,0.48898 -0.0113,0.15249 0.16215,0.29074 0.38537,0.30722 0.22321,0.0165 0.59511,0.28722 0.82645,0.60161 0.23134,0.31439 0.51469,0.57857 0.62969,0.58706 0.11498,0.009 0.43312,0.27525 0.70697,0.59277 0.27384,0.31754 0.67935,0.59075 0.90111,0.60713 0.53073,0.0392 0.53194,1.60381 10e-4,1.89204 -0.12043,0.0654 -0.34286,0.62671 -0.4943,1.24729 -0.15144,0.62059 -0.36635,1.12162 -0.47759,1.1134 -0.11124,-0.008 -0.411,0.63857 -0.66613,1.43731 -0.25515,0.79874 -0.56554,1.44474 -0.68977,1.43557 -0.12423,-0.009 -0.24821,0.28573 -0.27552,0.65534 -0.0482,0.65205 -0.10489,0.66794 -1.9089,0.53468 -1.0226,-0.0755 -1.89111,-0.25502 -1.93004,-0.39885 -0.0389,-0.14381 -1.45917,-0.40076 -3.1561,-0.57097 -2.85795,-0.28671 -3.13107,-0.26999 -3.70631,0.22609 -0.34155,0.29456 -0.71595,0.77257 -0.83202,1.06225 -0.11605,0.28967 -0.39286,0.58148 -0.61513,0.64844 -0.22227,0.067 -0.41684,0.29408 -0.4324,0.50467 -0.0156,0.21059 -0.2305,0.44383 -0.47765,0.5183 -0.35995,0.10846 -0.44332,0.40958 -0.41897,1.5133 0.0167,0.75783 0.15618,1.46908 0.30991,1.58053 0.15374,0.11143 0.32343,0.71914 0.37711,1.35042 0.0537,0.63129 0.19762,1.15518 0.31988,1.16421 0.12224,0.009 0.27042,0.44566 0.32927,0.97029 0.0588,0.52462 0.19165,0.96012 0.29508,0.96776 0.31394,0.0232 0.68919,2.6915 0.45923,3.26546 -0.11825,0.29505 -0.39202,0.52338 -0.60846,0.50739 -0.21645,-0.016 -0.47446,0.14276 -0.57337,0.35277 -0.0989,0.21001 -0.42231,0.43953 -0.71867,0.51005 -0.47512,0.11305 -0.91938,0.41887 -2.83061,1.94849 -0.25024,0.20027 -0.5874,0.35436 -0.74925,0.3424 -0.16184,-0.012 -0.49838,0.15431 -0.74787,0.36948 -0.2495,0.21516 -0.44405,0.2616 -0.43235,0.1032 0.0117,-0.15841 -0.15914,-0.30134 -0.37966,-0.31763 -0.22052,-0.0163 -0.53414,-0.28271 -0.69697,-0.59203 -0.16281,-0.30934 -0.43908,-0.573 -0.61391,-0.58591 -0.17483,-0.0129 -0.65397,-0.41318 -1.06473,-0.88947 -0.41077,-0.47631 -0.84757,-0.87344 -0.97066,-0.88254 -0.12308,-0.009 -0.53799,-0.45546 -0.92201,-0.99192 -0.38402,-0.53648 -0.9825,-1.06951 -1.32995,-1.1845 -0.34744,-0.11501 -0.62294,-0.32775 -0.61223,-0.47278 0.0107,-0.14503 -0.40389,-0.29496 -0.92135,-0.33318 -0.51746,-0.0382 -0.94798,0.0272 -0.95672,0.14553 -0.009,0.11825 -0.75274,0.31132 -1.65335,0.42902 -0.9006,0.11769 -1.64605,0.33021 -1.65654,0.47226 -0.0105,0.14205 -0.17363,0.24686 -0.36255,0.2329 -0.6371,-0.0471 -1.3805,1.01242 -1.63659,2.33243 -0.13993,0.72147 -0.34438,1.3051 -0.45426,1.29699 -0.10988,-0.008 -0.35182,0.88619 -0.53763,1.98735 -0.18582,1.10116 -0.43256,1.99512 -0.54833,1.98657 -0.11576,-0.009 -0.31319,0.47341 -0.43874,1.07102 -0.12556,0.59761 -0.28825,1.1383 -0.36156,1.20152 -0.0733,0.0633 -1.56996,0.1053 -3.32587,0.0935 -2.01282,-0.0136 -3.23959,0.0912 -3.31982,0.28333 -0.18607,0.44569 -0.89402,0.31823 -0.85909,-0.15471 z m 6.92505,-17.15125 c 0.0931,-0.12268 0.75012,-0.26528 1.46003,-0.31692 0.70991,-0.0516 1.29734,-0.18321 1.30541,-0.29241 0.008,-0.10921 0.75153,-0.29485 1.65213,-0.41256 0.90061,-0.11769 1.64534,-0.32059 1.65496,-0.4509 0.01,-0.1303 0.37602,-0.28834 0.8142,-0.35119 0.43818,-0.0629 0.87634,-0.2834 0.97369,-0.4901 0.0974,-0.2067 0.36223,-0.36214 0.58864,-0.34542 0.22642,0.0167 0.42059,-0.0906 0.43151,-0.2384 0.0109,-0.14785 0.2051,-0.25512 0.4315,-0.2384 0.22642,0.0167 0.49258,-0.14143 0.59149,-0.35143 0.0989,-0.21001 0.44175,-0.44417 0.76189,-0.52035 0.54241,-0.12906 5.64581,-4.35238 5.67097,-4.69303 0.006,-0.085 0.27252,-0.39624 0.59165,-0.69178 0.31914,-0.29555 0.59102,-0.68306 0.60417,-0.86112 0.0131,-0.17808 0.2105,-0.38 0.43856,-0.44871 0.22805,-0.0687 0.42832,-0.31019 0.44505,-0.5366 0.0167,-0.22641 0.14176,-0.40342 0.27785,-0.39337 0.1361,0.0101 0.35396,-0.33873 0.48414,-0.77507 0.1302,-0.43633 0.34257,-0.78552 0.47197,-0.77596 0.12939,0.01 0.34596,-0.40013 0.48126,-0.91042 0.13526,-0.51029 0.33977,-0.92087 0.45438,-0.9124 0.1146,0.008 0.33021,-0.52292 0.47912,-1.18085 0.14892,-0.65793 0.36597,-1.18921 0.48236,-1.18061 0.3274,0.0242 1.13892,-4.10028 1.33661,-6.79331 0.20272,-2.75794 0.0446,-7.22722 -0.26324,-7.45266 -0.1134,-0.0831 -0.25773,-0.61061 -0.32074,-1.17237 -0.063,-0.56176 -0.21248,-1.02861 -0.33212,-1.03745 -0.11964,-0.009 -0.27044,-0.38484 -0.33509,-0.83558 -0.0647,-0.45073 -0.21929,-0.82702 -0.34364,-0.83621 -0.12435,-0.009 -0.27899,-0.38548 -0.34365,-0.83622 -0.0647,-0.45072 -0.21579,-0.82676 -0.33585,-0.83563 -0.12008,-0.009 -0.27243,-0.32728 -0.33856,-0.70757 -0.0662,-0.38031 -0.34144,-0.94795 -0.61181,-1.26144 -0.27037,-0.3135 -0.47968,-0.73099 -0.46514,-0.92778 0.0145,-0.19679 -0.26402,-0.54198 -0.61902,-0.76709 -0.35501,-0.22511 -0.63448,-0.55805 -0.62105,-0.73985 0.03,-0.40617 -2.34909,-3.26341 -2.74141,-3.29239 -0.15563,-0.0115 -0.54089,-0.34402 -0.85614,-0.73894 -0.31524,-0.39491 -0.70625,-0.72785 -0.8689,-0.73987 -0.16264,-0.012 -0.40733,-0.27334 -0.54373,-0.58071 -0.13641,-0.30738 -0.4252,-0.57197 -0.64177,-0.58796 -0.21657,-0.016 -0.38624,-0.1309 -0.37705,-0.25534 0.009,-0.12446 -0.45644,-0.40697 -1.03473,-0.62785 -0.57829,-0.22086 -1.04385,-0.50421 -1.03458,-0.62967 0.009,-0.12546 -0.40066,-0.3388 -0.91095,-0.4741 -0.51029,-0.13526 -0.92006,-0.35085 -0.91059,-0.479 0.009,-0.12815 -0.49054,-0.35691 -1.11112,-0.50834 -0.62058,-0.15144 -1.18779,-0.38586 -1.26046,-0.52094 -0.0726,-0.13508 -0.87559,-0.37927 -1.78427,-0.54262 -0.9087,-0.16338 -1.64451,-0.40075 -1.63514,-0.52754 0.009,-0.12678 -1.55551,-0.34667 -3.4775,-0.48864 -1.92198,-0.14198 -3.50217,-0.15455 -3.51152,-0.0279 -0.009,0.12661 -0.89481,0.24684 -1.96767,0.26716 -1.07287,0.0203 -2.02448,0.13877 -2.1147,0.26321 -0.0902,0.12444 -0.62366,0.27782 -1.18542,0.34083 -0.56176,0.063 -1.02861,0.21247 -1.03745,0.33212 -0.009,0.11964 -0.38484,0.27043 -0.83558,0.33508 -0.45073,0.0647 -0.82657,0.21319 -0.83521,0.33007 -0.009,0.11688 -0.5713,0.32472 -1.25036,0.46185 -0.67906,0.13712 -1.24271,0.35836 -1.25256,0.49163 -0.01,0.13328 -0.23555,0.3075 -0.50158,0.38718 -0.52781,0.15808 -0.74061,0.29414 -2.18616,1.39774 -1.62587,1.24128 -2.02011,1.50005 -2.51033,1.64777 -0.25933,0.0781 -0.48477,0.3215 -0.50097,0.54079 -0.0162,0.21929 -0.48319,0.77861 -1.03777,1.24294 -0.55458,0.46433 -1.01456,0.9285 -1.02217,1.03151 -0.008,0.10301 -0.32801,0.43809 -0.71202,0.74462 -0.384,0.30653 -0.80743,0.88739 -0.94095,1.2908 -0.13352,0.4034 -0.40576,0.78258 -0.60495,0.8426 -0.1992,0.06 -0.46573,0.4562 -0.59228,0.88039 -0.1266,0.42419 -0.33598,0.76343 -0.46537,0.75387 -0.1294,-0.01 -0.34597,0.40014 -0.48127,0.91042 -0.13526,0.51029 -0.34287,0.92064 -0.46127,0.91189 -0.1184,-0.009 -0.33916,0.49185 -0.4906,1.11243 -0.15144,0.62059 -0.37764,1.18352 -0.50267,1.25095 -0.12504,0.0675 -0.48874,1.6419 -0.80824,3.49881 -0.44656,2.59536 -0.56134,4.08205 -0.4963,6.42819 0.0466,1.6786 0.18706,3.12826 0.31222,3.22146 0.12516,0.0932 0.26713,0.81091 0.31548,1.5949 0.0484,0.78399 0.19523,1.43337 0.32638,1.44306 0.13116,0.01 0.29202,0.32563 0.35749,0.7021 0.0654,0.37646 0.21727,0.69173 0.33734,0.7006 0.12007,0.009 0.27121,0.38491 0.33586,0.83565 0.0647,0.45072 0.2193,0.82702 0.34365,0.8362 0.12435,0.009 0.28018,0.39379 0.34629,0.85468 0.0661,0.46088 0.28542,0.91578 0.48735,1.01088 0.20193,0.0951 0.35463,0.3426 0.33931,0.54999 -0.0153,0.20741 0.19876,0.60211 0.47576,0.87713 0.27699,0.27502 0.49631,0.59886 0.48739,0.71965 -0.0238,0.32189 3.87589,4.81033 4.20014,4.83428 0.15157,0.0112 0.41705,0.2566 0.58997,0.54536 0.17291,0.28875 0.58021,0.63109 0.9051,0.76076 0.32489,0.12967 0.58308,0.33896 0.57376,0.4651 -0.009,0.12613 0.33013,0.33287 0.75432,0.45944 0.42417,0.12659 0.82518,0.40908 0.8911,0.62785 0.066,0.21876 0.3051,0.41143 0.53151,0.42816 0.2264,0.0167 0.40414,0.13205 0.39496,0.25628 -0.009,0.12423 0.66679,0.44072 1.50213,0.7033 0.83536,0.26257 1.58096,0.58354 1.65691,0.71325 0.0759,0.12971 0.75855,0.3562 1.51691,0.50333 0.75834,0.14716 1.37163,0.36497 1.36282,0.48413 -0.009,0.11915 0.55459,0.31309 1.25198,0.43096 1.96294,0.33179 8.75414,0.5897 8.94392,0.33965 z"
           style="display:inline;fill:#ffffff;fill-opacity:1;stroke:#ffffff;stroke-opacity:0.825" />
        <ellipse
           ry="27.700485"
           rx="23.194239"
           cy="497.10904"
           cx="381.35672"
           id="path3965-9"
           style="display:inline;fill:#ffffff;fill-opacity:1;stroke:#6cc24a;stroke-width:7.40628;stroke-miterlimit:4;stroke-dasharray:none;stroke-opacity:1" />
      </g>
    </g>
  </g>
</svg>
