<?xml version="1.0" encoding="UTF-8" standalone="no"?>
<!-- Created with Inkscape (http://www.inkscape.org/) -->

<svg
   width="648.59967"
   height="500.51697"
   id="svg2"
   version="1.1"
   inkscape:version="1.2.1 (9c6d41e410, 2022-07-14, custom)"
   sodipodi:docname="logo_RobSIC_english.svg"
   inkscape:export-filename="../logo_RobSIC_english.png"
   inkscape:export-xdpi="90"
   inkscape:export-ydpi="90"
   xmlns:inkscape="http://www.inkscape.org/namespaces/inkscape"
   xmlns:sodipodi="http://sodipodi.sourceforge.net/DTD/sodipodi-0.dtd"
   xmlns:xlink="http://www.w3.org/1999/xlink"
   xmlns="http://www.w3.org/2000/svg"
   xmlns:svg="http://www.w3.org/2000/svg"
   xmlns:rdf="http://www.w3.org/1999/02/22-rdf-syntax-ns#"
   xmlns:cc="http://creativecommons.org/ns#"
   xmlns:dc="http://purl.org/dc/elements/1.1/">
  <defs
     id="defs4">
    <linearGradient
       id="linearGradient5497">
      <stop
         style="stop-color:#599e47;stop-opacity:1;"
         offset="0"
         id="stop5499" />
      <stop
         style="stop-color:#a3dd94;stop-opacity:0;"
         offset="1"
         id="stop5501" />
    </linearGradient>
    <linearGradient
       id="linearGradient5477">
      <stop
         style="stop-color:#3da900;stop-opacity:1;"
         offset="0"
         id="stop5479" />
      <stop
         id="stop5493"
         offset="0.5"
         style="stop-color:#3da900;stop-opacity:0.49803922;" />
      <stop
         style="stop-color:#3da900;stop-opacity:0;"
         offset="1"
         id="stop5481" />
    </linearGradient>
    <linearGradient
       id="linearGradient5448"
       inkscape:swatch="solid">
      <stop
         style="stop-color:#5ab228;stop-opacity:0.5981735;"
         offset="0"
         id="stop5450" />
    </linearGradient>
    <linearGradient
       id="linearGradient5477-2">
      <stop
         style="stop-color:#7cbf56;stop-opacity:1;"
         offset="0"
         id="stop5479-3" />
      <stop
         id="stop5493-7"
         offset="0.5"
         style="stop-color:#7bbf55;stop-opacity:0.75197953;" />
      <stop
         style="stop-color:#7cbf56;stop-opacity:0;"
         offset="1"
         id="stop5481-5" />
    </linearGradient>
    <linearGradient
       id="linearGradient906">
      <stop
         style="stop-color:#7cbf56;stop-opacity:1;"
         offset="0"
         id="stop900" />
      <stop
         id="stop902"
         offset="0.5"
         style="stop-color:#9fcb81;stop-opacity:1;" />
      <stop
         style="stop-color:#d9e3cf;stop-opacity:1;"
         offset="1"
         id="stop904" />
    </linearGradient>
    <linearGradient
       id="linearGradient5497-3">
      <stop
         style="stop-color:#7cbf56;stop-opacity:1;"
         offset="0"
         id="stop5499-5" />
      <stop
         style="stop-color:#cee4c5;stop-opacity:1;"
         offset="1"
         id="stop5501-6" />
    </linearGradient>
    <radialGradient
       inkscape:collect="always"
       xlink:href="#linearGradient911"
       id="radialGradient915"
       cx="387.73386"
       cy="501.02728"
       fx="387.73386"
       fy="501.02728"
       r="168.14024"
       gradientTransform="matrix(0.28619728,-1.1761253,1.6697719,0.4063211,-571.2553,772.70381)"
       gradientUnits="userSpaceOnUse" />
    <linearGradient
       inkscape:collect="always"
       id="linearGradient911">
      <stop
         style="stop-color:#d6e4cd;stop-opacity:1;"
         offset="0"
         id="stop907" />
      <stop
         style="stop-color:#6cc24a;stop-opacity:1;"
         offset="1"
         id="stop909" />
    </linearGradient>
  </defs>
  <sodipodi:namedview
     id="base"
     pagecolor="#ffffff"
     bordercolor="#666666"
     borderopacity="1.0"
     inkscape:pageopacity="0.0"
     inkscape:pageshadow="2"
     inkscape:zoom="1"
     inkscape:cx="286"
     inkscape:cy="305.5"
     inkscape:document-units="px"
     inkscape:current-layer="layer1"
     showgrid="false"
     inkscape:window-width="1440"
     inkscape:window-height="831"
     inkscape:window-x="0"
     inkscape:window-y="0"
     inkscape:window-maximized="1"
     fit-margin-top="0"
     fit-margin-left="0"
     fit-margin-right="0"
     fit-margin-bottom="0"
     inkscape:showpageshadow="2"
     inkscape:pagecheckerboard="0"
     inkscape:deskcolor="#d1d1d1"
     showguides="true" />
  <metadata
     id="metadata7">
    <rdf:RDF>
      <cc:Work
         rdf:about="">
        <dc:format>image/svg+xml</dc:format>
        <dc:type
           rdf:resource="http://purl.org/dc/dcmitype/StillImage" />
      </cc:Work>
    </rdf:RDF>
  </metadata>
  <g
     inkscape:label="Layer 1"
     inkscape:groupmode="layer"
     id="layer1"
     transform="translate(-110.51654,-250.99815)">
    <g
       id="g8099">
      <text
         xml:space="preserve"
         style="font-style:normal;font-weight:normal;font-size:40px;line-height:0%;font-family:sans-serif;text-align:center;letter-spacing:0px;word-spacing:0px;text-anchor:middle;fill:#6e7ca0;fill-opacity:1;stroke:none"
         x="434.91638"
         y="691.9151"
         id="text5505"><tspan
           sodipodi:role="line"
           x="434.91638"
           y="691.9151"
           style="font-style:normal;font-variant:normal;font-weight:normal;font-stretch:normal;font-size:40px;line-height:1.25;font-family:sans-serif;-inkscape-font-specification:'sans-serif, Normal';font-variant-ligatures:normal;font-variant-caps:normal;font-variant-numeric:normal;font-variant-east-asian:normal;text-align:center;text-anchor:middle;fill:#6e7ca0;fill-opacity:1"
           id="tspan609">Laboratory of Robotics,</tspan><tspan
           sodipodi:role="line"
           x="434.91638"
           y="741.9151"
           style="font-style:normal;font-variant:normal;font-weight:normal;font-stretch:normal;font-size:40px;line-height:1.25;font-family:sans-serif;-inkscape-font-specification:'sans-serif, Normal';font-variant-ligatures:normal;font-variant-caps:normal;font-variant-numeric:normal;font-variant-east-asian:normal;text-align:center;text-anchor:middle;fill:#6e7ca0;fill-opacity:1"
           id="tspan8088">Intelligent and Complex Systems</tspan></text>
      <g
         id="g7305"
         transform="translate(26.793964,-72.178582)">
        <path
           id="path2996-3"
           style="fill:url(#radialGradient915);fill-opacity:1;stroke:none;stroke-width:1.06667"
           d="m 414.2274,323.17676 c -19.12833,0 -35.2416,12.65634 -40.19922,29.9004 l -97.43359,6.53319 c -6.86308,-15.15246 -22.30611,-25.73437 -40.26759,-25.73437 -24.33707,0 -44.06639,19.40938 -44.06639,43.33399 0,23.92459 19.72932,43.33399 44.06639,43.33399 6.12115,0 11.93683,-1.21631 17.23438,-3.4336 l 60.90039,70.96679 c -2.25877,4.64938 -3.95706,9.61545 -5.0332,14.79883 l -91.33398,-15.76562 c -2.48752,-24.24508 -23.31397,-43.16602 -48.63281,-43.16602 -26.99452,0 -48.86719,21.52943 -48.86719,48.06641 0,26.53696 21.87267,48.0332 48.86719,48.0332 20.79574,0 38.53858,-12.77175 45.5996,-30.76758 l 93.76563,16.20118 c 1.15555,7.56712 3.6475,14.73303 7.23438,21.19921 l -33.26759,31.4004 c -3.68491,-1.23995 -7.62002,-1.93359 -11.73242,-1.93359 -20.02818,0 -36.26758,15.94407 -36.26758,35.63281 0,19.68871 16.2394,35.66797 36.26758,35.66797 20.02819,0 36.26563,-15.97926 36.26563,-35.66797 0,-7.46921 -2.33815,-14.40453 -6.33204,-20.13281 l 29.19923,-27.59962 c 11.57738,10.09866 26.80471,16.26563 43.5,16.26563 2.4919,0 4.94753,-0.13436 7.36719,-0.40039 l 22.03319,47.90038 c -1.17192,0.77833 -2.28504,1.63145 -3.37695,2.50782 a 48.600018,47.990472 0 0 0 -2.47851,2.13476 48.600018,47.990472 0 0 0 -0.17383,0.17188 48.600018,47.990472 0 0 0 -0.37109,0.36719 c -0.5899,0.5618 -1.17566,1.12435 -1.73633,1.71484 a 48.600018,47.990472 0 0 0 -2.36719,2.6582 c -0.49623,0.60439 -0.94823,1.24179 -1.41601,1.86914 a 48.600018,47.990472 0 0 0 -5.08009,8.32032 48.600018,47.990472 0 0 0 -0.0156,0.0273 c -2.89995,6.11418 -4.55077,12.90877 -4.55077,20.0957 0,14.45328 6.53562,27.35686 16.82031,36.14454 a 48.600018,47.990472 0 0 1 -0.95508,-1.0879 48.600018,47.990472 0 0 0 2.47656,2.0957 48.600018,47.990472 0 0 1 -1.33789,-0.84961 c 3.41095,2.88535 7.21803,5.323 11.35157,7.20508 a 48.600018,47.990472 0 0 1 -1.34376,-0.85351 48.600018,47.990472 0 0 0 3.3379,1.49609 48.600018,47.990472 0 0 1 -1.66993,-0.48437 c 4.1096,1.8348 8.5132,3.14565 13.13477,3.80664 a 48.600018,47.990472 0 0 1 -1.82227,-0.52735 48.600018,47.990472 0 0 0 8.76563,0.88477 48.600018,47.990472 0 0 0 2.14844,-0.15234 48.600018,47.990472 0 0 1 -2.17383,0.2832 48.600018,47.990472 0 0 1 -6.91797,-0.48828 c 2.3196,0.33174 4.673,0.56055 7.08594,0.56055 26.99451,0 48.86523,-21.49623 48.86523,-48.03321 0,-16.74479 -8.74533,-31.42775 -21.95898,-40.01563 a 48.600018,47.990472 0 0 0 -1.43751,-0.91796 c -0.3947,-0.23742 -0.78159,-0.48432 -1.18358,-0.71094 a 48.600018,47.990472 0 0 0 -24.42774,-6.50586 48.600018,47.990472 0 0 0 -6.16211,0.43555 l -21.33008,-46.35155 c 21.61879,-10.54153 36.4668,-32.43621 36.4668,-57.76759 0,-28.39266 -18.67007,-52.49687 -44.59961,-61.0996 l 15.0664,-49.66602 c 1.48049,0.15608 2.97737,0.26563 4.5,0.26563 23.07595,0 41.76759,-18.38158 41.76759,-41.06641 0,-22.68483 -18.69164,-41.09961 -41.76759,-41.09961 z m -4.01953,388.16602 c -0.11017,-0.0492 -0.21448,-0.10823 -0.32422,-0.15821 a 48.600018,47.990472 0 0 0 0.32422,0.15821 z m -11.67578,-7.36328 c -0.0618,-0.0522 -0.12215,-0.10571 -0.1836,-0.1582 a 48.600018,47.990472 0 0 0 0.1836,0.1582 z M 374.02818,375.47754 c 2.48591,8.63432 7.77297,16.08481 14.83399,21.39845 l -16.53516,54.49999 c -17.20594,0.34785 -32.76353,7.23223 -44.26562,18.20117 l -56.69923,-66.0664 c 4.78256,-6.15232 7.93484,-13.61828 8.79883,-21.73438 z m 1.13281,111.89844 c 16.83216,0 30.4668,14.97901 30.4668,33.46679 0,18.48781 -13.63464,33.46681 -30.4668,33.46681 -16.83216,0 -30.5,-14.979 -30.5,-33.46681 0,-18.48778 13.66784,-33.46679 30.5,-33.46679 z m 31.96289,138.08985 a 48.600018,47.990472 0 0 0 -0.25,0.13281 48.600018,47.990472 0 0 1 0.25,-0.13281 z m -25.42968,41.93749 a 48.600018,47.990472 0 0 0 -0.008,0.11328 48.600018,47.990472 0 0 0 0.0449,0.63282 48.600018,47.990472 0 0 1 -0.0723,-0.50195 48.600018,47.990472 0 0 1 0.0352,-0.24415 z m 95.62305,11.82032 a 48.600018,47.990472 0 0 1 -0.26758,1.21289 48.600018,47.990472 0 0 0 0.26758,-1.21289 z m -93.79884,1.19141 a 48.600018,47.990472 0 0 0 0.5293,1.6582 48.600018,47.990472 0 0 1 -0.5293,-1.6582 z m 89.3672,9.94726 a 48.600018,47.990472 0 0 1 -1.13086,2.04297 48.600018,47.990472 0 0 0 1.13086,-2.04297 z m -84.02149,2.12696 a 48.600018,47.990472 0 0 0 1.44141,2.16406 48.600018,47.990472 0 0 1 -1.44141,-2.16406 z m 76.6836,7.90429 a 48.600018,47.990472 0 0 1 -2.12696,2.09961 48.600018,47.990472 0 0 0 2.12696,-2.09961 z m -9.89454,7.98633 a 48.600018,47.990472 0 0 1 -2.93164,1.58007 48.600018,47.990472 0 0 0 2.93164,-1.58007 z m -11.81054,5.21289 a 48.600018,47.990472 0 0 1 -3.30274,0.70899 48.600018,47.990472 0 0 0 3.30274,-0.70899 z" />
        <text
           id="text3125"
           y="566.31451"
           x="256.99673"
           style="font-style:normal;font-weight:normal;font-size:135.075px;line-height:125%;font-family:Sans;letter-spacing:0px;word-spacing:0px;fill:#6e7ca0;fill-opacity:1;stroke:none;stroke-width:1.06667"
           xml:space="preserve"><tspan
             y="566.31451"
             x="256.99673"
             id="tspan3127"
             sodipodi:role="line"
             style="fill:#6e7ca0;fill-opacity:1;stroke-width:1.06667">R  bSIC</tspan></text>
        <path
           inkscape:connector-curvature="0"
           id="path3963"
           d="m 370.82053,567.43864 c 0.0175,-0.23654 -0.0914,-0.43918 -0.24198,-0.45031 -0.15055,-0.0111 -0.3251,-0.47808 -0.38787,-1.03769 -0.0627,-0.5596 -0.22881,-1.02593 -0.36896,-1.03628 -0.14015,-0.0107 -0.23167,-0.33217 -0.20338,-0.71517 0.0283,-0.38299 -0.11344,-0.88752 -0.31498,-1.12121 -0.20151,-0.23366 -0.40904,-1.10151 -0.46118,-1.92856 -0.0522,-0.82705 -0.19733,-1.5113 -0.32269,-1.52056 -0.12535,-0.01 -0.27606,-0.4461 -0.33492,-0.97076 -0.14133,-1.26002 -0.99684,-2.06121 -2.50371,-2.34471 -0.67585,-0.12715 -1.22129,-0.33318 -1.21209,-0.45782 0.01,-0.12465 -0.80364,-0.37625 -1.80632,-0.55916 l -1.82308,-0.33252 -3.95508,3.42564 c -2.64617,2.29197 -4.1186,3.37901 -4.44918,3.28468 -0.27176,-0.0775 -0.48527,-0.26057 -0.47448,-0.4067 0.0108,-0.14614 -0.17796,-0.2803 -0.41945,-0.29815 -0.24152,-0.0178 -0.49663,-0.22335 -0.56696,-0.4567 -0.0704,-0.23335 -0.49804,-0.53471 -0.9505,-0.66972 -0.45246,-0.13503 -0.81466,-0.35395 -0.80486,-0.48659 0.01,-0.13264 -0.36298,-0.35477 -0.82841,-0.49363 -0.46543,-0.13888 -0.83697,-0.37796 -0.82565,-0.53134 0.0113,-0.15338 -0.35651,-0.4424 -0.81744,-0.64227 -0.67153,-0.2912 -0.82582,-0.52874 -0.77656,-1.19554 0.0338,-0.45769 0.17252,-0.82394 0.30825,-0.81391 0.13574,0.01 0.37519,-0.64362 0.53212,-1.45253 0.15697,-0.8089 0.40164,-1.53678 0.54382,-1.61751 0.2885,-0.16382 1.19669,-3.73546 1.29776,-5.10371 0.0466,-0.63088 -0.19988,-1.18007 -0.86642,-1.93043 -0.51236,-0.57679 -0.92418,-1.14874 -0.91515,-1.271 0.009,-0.12226 -0.48925,-0.76881 -1.1073,-1.43679 l -1.12372,-1.21451 -1.88168,0.0534 c -1.03492,0.0293 -1.95754,0.15339 -2.05025,0.27562 -0.0927,0.12224 -0.94974,0.26013 -1.90454,0.30643 -0.95479,0.0463 -1.8076,0.17551 -1.89512,0.28713 -0.0875,0.11161 -0.79049,0.24034 -1.56212,0.28602 -1.2427,0.0736 -1.41525,0.0165 -1.51027,-0.49966 -0.059,-0.32052 -0.20449,-0.58994 -0.3233,-0.59872 -0.11881,-0.009 -0.3357,-0.60859 -0.48198,-1.33292 -0.14627,-0.72435 -0.36794,-1.32451 -0.49263,-1.33372 -0.12467,-0.01 -0.28153,-0.39916 -0.34857,-0.86655 -0.0671,-0.46739 -0.30231,-0.93476 -0.52279,-1.0386 -0.22048,-0.10379 -0.38628,-0.38638 -0.36843,-0.6279 0.0178,-0.24149 -0.0966,-0.44862 -0.2543,-0.46026 -0.46132,-0.0341 -0.24935,-1.11435 0.33392,-1.70181 0.29503,-0.29715 0.64703,-0.53208 0.7822,-0.5221 0.13518,0.01 1.70937,-1.23792 3.4982,-2.77311 l 3.25243,-2.79126 -0.15122,-3.08242 c -0.17719,-3.61177 -0.42025,-4.03369 -2.68797,-4.66601 -0.84798,-0.23645 -1.534,-0.53527 -1.52448,-0.66406 0.01,-0.12878 -0.42806,-0.35224 -0.97236,-0.49655 -0.54431,-0.14427 -0.98226,-0.36242 -0.97323,-0.48466 0.009,-0.12224 -0.55777,-0.35222 -1.25958,-0.51107 -0.70179,-0.15884 -1.2678,-0.39966 -1.25779,-0.53518 0.01,-0.1355 -0.37951,-0.36503 -0.86559,-0.51005 -0.48608,-0.14501 -0.75073,-0.33704 -0.58809,-0.42672 0.16262,-0.0897 0.50348,-1.76491 0.75745,-3.72278 0.25396,-1.95786 0.56782,-3.6212 0.69746,-3.69631 0.12964,-0.0751 0.3357,-0.35621 0.45791,-0.62466 0.15419,-0.33872 0.53208,-0.46522 1.23475,-0.41331 0.55691,0.0412 1.02086,-0.0376 1.03101,-0.1749 0.0107,-0.13735 1.05732,-0.26351 2.32706,-0.28037 1.26974,-0.0168 2.31749,-0.15081 2.32834,-0.29768 0.0109,-0.14686 0.50371,-0.23304 1.09525,-0.19151 1.66318,0.11644 2.37712,-0.11384 2.61949,-0.84605 0.12198,-0.36845 0.3224,-0.66247 0.44545,-0.65339 0.12306,0.01 0.33936,-0.41955 0.48069,-0.95254 0.1413,-0.53298 0.40173,-1.00574 0.57868,-1.05054 0.17697,-0.0448 0.43711,-0.75537 0.5781,-1.57903 0.21768,-1.27176 0.17052,-1.59021 -0.31298,-2.11229 -0.31313,-0.33812 -0.56048,-0.7343 -0.54968,-0.88043 0.0108,-0.14612 -0.33396,-0.71789 -0.7661,-1.27061 -1.36966,-1.75176 -1.58202,-2.06683 -1.56336,-2.31938 0.01,-0.13564 -0.40653,-0.76928 -0.92565,-1.40808 -1.11058,-1.36664 -1.00723,-2.16505 0.41965,-3.24192 0.4948,-0.37342 0.90736,-0.78359 0.91681,-0.91149 0.01,-0.1279 0.43222,-0.58234 0.93947,-1.00987 0.50726,-0.42752 0.93143,-0.90077 0.94258,-1.05166 0.0111,-0.15088 0.45647,-0.65053 0.9896,-1.11032 0.77093,-0.66488 1.11864,-0.78658 1.69873,-0.59458 0.40115,0.13274 0.78779,0.34646 0.85917,0.47485 0.0714,0.1284 0.60707,0.35817 1.19042,0.5106 0.58335,0.15242 1.05197,0.39447 1.04138,0.53788 -0.0107,0.14341 0.42608,0.37883 0.97039,0.52315 0.54431,0.14428 0.98193,0.36681 0.9725,0.49443 -0.01,0.12762 0.39549,0.35399 0.89979,0.50303 0.50432,0.14906 0.98606,0.39939 1.07055,0.5563 0.27519,0.51113 2.36458,0.79258 2.84456,0.38317 0.24183,-0.20628 0.67182,-0.44388 0.95551,-0.528 0.2837,-0.084 0.52564,-0.28603 0.53766,-0.44867 0.0121,-0.16265 0.1833,-0.28604 0.38062,-0.2742 0.42527,0.025 1.74018,-1.11658 1.77135,-1.53849 0.012,-0.16174 0.18784,-0.34763 0.39087,-0.41305 0.26974,-0.0869 0.28652,-0.18921 0.0623,-0.3798 -0.19108,-0.16242 -0.25647,-2.01739 -0.1733,-4.91669 l 0.13354,-4.65586 1.04969,-0.11775 c 0.57735,-0.0648 1.0576,-0.22453 1.06725,-0.35501 0.01,-0.13049 0.60458,-0.28143 1.32209,-0.33544 0.71752,-0.054 1.312,-0.19854 1.32105,-0.32122 0.01,-0.12269 0.86748,-0.32781 1.90759,-0.45584 1.04013,-0.12803 1.89845,-0.33198 1.9074,-0.45322 0.009,-0.12124 0.31677,0.10229 0.68403,0.49684 0.36727,0.39451 0.65693,0.86377 0.6437,1.04282 -0.0132,0.17904 0.0832,0.33345 0.21424,0.34314 0.13106,0.01 0.39516,0.38595 0.5869,0.83616 0.3696,0.86785 0.44986,1.00468 1.26424,2.15556 0.28448,0.40204 0.50542,0.89098 0.49098,1.08653 -0.0144,0.19555 0.16179,0.4441 0.39163,0.55235 0.22986,0.10821 0.40815,0.32892 0.39623,0.49037 -0.012,0.16145 0.23574,0.63787 0.55038,1.05873 0.52563,0.70309 0.76717,0.77959 2.9764,0.94279 2.49398,0.18423 3.53529,-0.0346 3.58844,-0.75411 0.0171,-0.231 0.1498,-0.41123 0.29497,-0.40051 0.14517,0.0108 0.37755,-0.3613 0.51642,-0.82673 0.13888,-0.46543 0.36099,-0.83822 0.49363,-0.82842 0.13264,0.01 0.35734,-0.37156 0.49932,-0.84748 0.142,-0.47591 0.43658,-0.91906 0.65462,-0.98476 0.21807,-0.0657 0.50692,-0.48967 0.6419,-0.94214 0.13504,-0.45246 0.35398,-0.81464 0.48662,-0.80485 0.13264,0.01 0.35477,-0.36299 0.49363,-0.82842 0.13888,-0.46543 0.3754,-0.83715 0.52566,-0.82605 0.15024,0.0111 0.41133,-0.26152 0.58015,-0.60581 0.21347,-0.43532 0.30185,-0.48131 0.29017,-0.15103 -0.0128,0.36335 0.38403,0.55177 1.68882,0.80173 0.93809,0.1797 1.6982,0.42734 1.68911,0.55027 -0.01,0.12294 1.03589,0.46588 2.32214,0.76209 1.28626,0.29623 2.42293,0.68795 2.52593,0.8705 0.10304,0.18256 0.11064,1.39655 0.017,2.69777 -0.10005,1.38308 -0.0512,2.37465 0.11639,2.38703 0.17095,0.0126 0.20581,1.11658 0.0863,2.73394 -0.17887,2.42144 -0.13759,2.78053 0.38396,3.34376 0.32138,0.34704 0.75354,0.64347 0.96036,0.65875 0.20682,0.0153 0.36725,0.14656 0.35653,0.29173 -0.0108,0.14517 0.3613,0.37755 0.82674,0.51642 0.46542,0.13888 0.83745,0.37124 0.82673,0.51641 -0.0107,0.14517 0.30309,0.28778 0.69734,0.3169 0.39425,0.0291 0.72559,-0.0658 0.73632,-0.21099 0.0107,-0.14517 0.40191,-0.31881 0.8693,-0.38585 0.46739,-0.0671 0.92919,-0.29048 1.02622,-0.4965 0.0971,-0.20604 0.57865,-0.43231 1.07027,-0.50283 0.49161,-0.0705 0.90259,-0.24699 0.91332,-0.39216 0.0107,-0.14517 0.21709,-0.24936 0.45858,-0.23152 0.24152,0.0178 0.52407,-0.14795 0.62791,-0.36844 0.10378,-0.22049 0.57121,-0.45573 1.03859,-0.52277 0.46739,-0.0671 0.85755,-0.22669 0.86701,-0.35476 0.01,-0.12808 0.37729,-0.29549 0.8174,-0.37203 0.44011,-0.0766 0.89293,-0.26705 1.00628,-0.42339 0.19916,-0.27469 4.53478,4.48179 4.50109,4.93803 -0.01,0.12265 0.19428,0.44347 0.45185,0.71292 0.90517,0.94691 1.43107,1.87232 1.1533,2.02944 -0.154,0.0871 -0.49343,0.56425 -0.75427,1.06032 -0.26085,0.49605 -0.5718,0.89472 -0.691,0.88591 -0.11921,-0.009 -0.22959,0.15779 -0.24528,0.37021 -0.0157,0.21243 -0.30856,0.6647 -0.65083,1.00507 -0.34226,0.34036 -0.63513,0.79265 -0.65082,1.00506 -0.0157,0.21242 -0.15511,0.37687 -0.3098,0.36545 -0.15469,-0.0114 -0.38605,0.29582 -0.51413,0.68276 -0.12805,0.38694 -0.33391,0.69606 -0.45743,0.68694 -0.1235,-0.01 -0.32934,0.30002 -0.45742,0.68696 -0.12805,0.38694 -0.35943,0.69418 -0.51413,0.68275 -0.15469,-0.0114 -0.31462,0.43083 -0.3554,0.98279 -0.0408,0.55195 0.0447,1.01233 0.18982,1.02305 0.14517,0.0108 0.32038,0.41286 0.38934,0.89364 0.069,0.48078 0.23546,0.88228 0.37001,0.89222 0.13455,0.01 0.3074,0.28186 0.38411,0.60428 0.0767,0.32243 0.44763,0.68822 0.82426,0.81289 0.37664,0.12461 0.67629,0.34169 0.6659,0.4823 -0.0107,0.1406 1.11006,0.33982 2.48988,0.44268 1.37983,0.10282 3.56714,0.34853 4.86068,0.54594 2.22723,0.33985 2.34928,0.39462 2.30211,1.0332 -0.0274,0.37087 0.0661,0.68289 0.20782,0.69336 0.1417,0.0107 0.28161,0.92893 0.31094,2.04102 0.0293,1.11211 0.15657,2.02962 0.28278,2.03895 0.12622,0.01 0.26214,0.79777 0.30206,1.75208 0.0559,1.33492 0.18173,1.74471 0.54574,1.77664 0.26025,0.0224 0.005,0.22557 -0.5661,0.45052 -0.57158,0.22493 -1.11184,0.49612 -1.20058,0.60262 -0.0888,0.10656 -0.52144,0.25627 -0.96154,0.33279 -0.44011,0.0766 -0.80794,0.24394 -0.8174,0.37201 -0.01,0.12808 -0.41057,0.28929 -0.89135,0.35825 -0.48078,0.069 -0.88216,0.23392 -0.89196,0.36656 -0.01,0.13264 -0.41119,0.29759 -0.89196,0.36656 -0.48078,0.069 -0.88255,0.23899 -0.8928,0.37782 -0.0107,0.13885 -0.54617,0.36895 -1.19094,0.51136 -0.64477,0.14239 -1.1843,0.42127 -1.19897,0.61971 -0.0146,0.19844 -0.18163,0.40005 -0.37104,0.44803 -0.41121,0.10411 -0.90861,3.17309 -0.7473,4.61093 0.0755,0.67311 0.31084,1.09014 0.70412,1.24771 0.32489,0.1302 0.90493,0.60949 1.28897,1.06516 0.38406,0.45568 0.91407,0.93013 1.17784,1.05435 0.26375,0.12419 0.46972,0.35893 0.45771,0.52157 -0.0121,0.16266 0.17296,0.31013 0.41106,0.32771 0.23809,0.0176 0.63478,0.30636 0.88154,0.64171 0.24677,0.33535 0.54901,0.61714 0.67167,0.6262 0.12265,0.01 0.462,0.2936 0.7541,0.63229 0.2921,0.33871 0.72464,0.63013 0.96119,0.6476 0.56611,0.0418 0.5674,1.71073 10e-4,2.01818 -0.12846,0.0698 -0.36572,0.66849 -0.52726,1.33044 -0.16153,0.66196 -0.39077,1.1964 -0.50943,1.18763 -0.11865,-0.009 -0.4384,0.68114 -0.71054,1.53313 -0.27216,0.85199 -0.60324,1.54106 -0.73575,1.53127 -0.13251,-0.01 -0.26476,0.30478 -0.29389,0.69903 -0.0514,0.69552 -0.11188,0.71247 -2.03616,0.57033 -1.09077,-0.0805 -2.01718,-0.27202 -2.05871,-0.42544 -0.0415,-0.1534 -1.55645,-0.42748 -3.3665,-0.60904 -3.04848,-0.30582 -3.33981,-0.28798 -3.9534,0.24117 -0.36432,0.31419 -0.76368,0.82407 -0.88749,1.13306 -0.12379,0.30899 -0.41905,0.62025 -0.65614,0.69167 -0.23709,0.0715 -0.44463,0.31369 -0.46123,0.53832 -0.0166,0.22463 -0.24586,0.47342 -0.50949,0.55285 -0.38395,0.11569 -0.47287,0.43689 -0.4469,1.61419 0.0178,0.80835 0.16659,1.56702 0.33057,1.6859 0.16399,0.11886 0.34499,0.76708 0.40225,1.44044 0.0573,0.67338 0.2108,1.2322 0.34121,1.24183 0.13039,0.01 0.28844,0.47537 0.35122,1.03497 0.0627,0.5596 0.20442,1.02413 0.31475,1.03228 0.33487,0.0247 0.73514,2.87094 0.48984,3.48316 -0.12613,0.31472 -0.41815,0.55827 -0.64902,0.54122 -0.23088,-0.0171 -0.50609,0.15227 -0.61159,0.37628 -0.1055,0.22401 -0.45047,0.46884 -0.76659,0.54406 -0.50679,0.12058 -0.98067,0.44679 -3.01931,2.07839 -0.26693,0.21362 -0.62656,0.37798 -0.7992,0.36522 -0.17263,-0.0128 -0.53161,0.1646 -0.79773,0.39412 -0.26613,0.2295 -0.47365,0.27904 -0.46117,0.11008 0.0125,-0.16898 -0.16975,-0.32143 -0.40497,-0.33881 -0.23523,-0.0174 -0.56975,-0.30156 -0.74344,-0.6315 -0.17366,-0.32996 -0.46835,-0.6112 -0.65484,-0.62497 -0.18648,-0.0138 -0.69756,-0.44073 -1.13571,-0.94877 -0.43815,-0.50806 -0.90407,-0.93167 -1.03537,-0.94137 -0.13128,-0.01 -0.57386,-0.48583 -0.98348,-1.05805 -0.40962,-0.57225 -1.048,-1.14081 -1.41861,-1.26347 -0.3706,-0.12268 -0.66447,-0.3496 -0.65305,-0.5043 0.0114,-0.1547 -0.43081,-0.31462 -0.98277,-0.35539 -0.55196,-0.0408 -1.01118,0.029 -1.0205,0.15523 -0.01,0.12614 -0.80292,0.33208 -1.76357,0.45762 -0.96064,0.12554 -1.75579,0.35223 -1.76698,0.50375 -0.0112,0.15152 -0.1852,0.26332 -0.38672,0.24842 -0.67957,-0.0502 -1.47253,1.07992 -1.7457,2.48793 -0.14925,0.76957 -0.36733,1.39211 -0.48454,1.38346 -0.11721,-0.009 -0.37527,0.94527 -0.57347,2.11984 -0.19821,1.17457 -0.4614,2.12812 -0.58489,2.119 -0.12347,-0.01 -0.33407,0.50498 -0.46799,1.14243 -0.13393,0.63745 -0.30746,1.21418 -0.38566,1.28162 -0.0782,0.0675 -1.67462,0.11232 -3.5476,0.0997 -2.147,-0.0145 -3.45556,0.0973 -3.54114,0.30222 -0.19847,0.4754 -0.95362,0.33944 -0.91636,-0.16502 z m 7.38672,-18.29466 c 0.0993,-0.13086 0.80012,-0.28297 1.55736,-0.33805 0.75724,-0.055 1.38383,-0.19542 1.39244,-0.3119 0.009,-0.1165 0.80163,-0.31451 1.76227,-0.44007 0.96065,-0.12553 1.75503,-0.34196 1.76529,-0.48096 0.0107,-0.13899 0.40109,-0.30756 0.86848,-0.3746 0.46739,-0.0671 0.93477,-0.30229 1.03861,-0.52277 0.10389,-0.22048 0.38637,-0.38629 0.62788,-0.36845 0.24151,0.0178 0.44863,-0.0966 0.46028,-0.2543 0.0116,-0.1577 0.21877,-0.27212 0.46026,-0.25429 0.24152,0.0178 0.52542,-0.15086 0.63092,-0.37486 0.1055,-0.22401 0.4712,-0.47378 0.81269,-0.55504 0.57857,-0.13766 6.02219,-4.64254 6.04903,-5.0059 0.006,-0.0907 0.29069,-0.42265 0.6311,-0.7379 0.34041,-0.31525 0.63042,-0.72859 0.64444,-0.91852 0.014,-0.18996 0.22454,-0.40534 0.4678,-0.47863 0.24325,-0.0733 0.45688,-0.33087 0.47472,-0.57237 0.0178,-0.24151 0.15121,-0.43032 0.29637,-0.4196 0.14518,0.0108 0.37756,-0.36131 0.51642,-0.82674 0.13888,-0.46542 0.36541,-0.83789 0.50343,-0.82769 0.13802,0.0107 0.36903,-0.4268 0.51335,-0.97111 0.14428,-0.54431 0.36242,-0.98226 0.48467,-0.97323 0.12224,0.009 0.35222,-0.55778 0.51106,-1.25957 0.15885,-0.70179 0.39037,-1.26849 0.51452,-1.25932 0.34923,0.0258 1.21485,-4.37363 1.42572,-7.2462 0.21623,-2.9418 0.0476,-7.70903 -0.28079,-7.9495 -0.12096,-0.0886 -0.27491,-0.65132 -0.34213,-1.25053 -0.0672,-0.59921 -0.22664,-1.09718 -0.35426,-1.10661 -0.12761,-0.01 -0.28847,-0.4105 -0.35743,-0.89129 -0.069,-0.48078 -0.23391,-0.88215 -0.36655,-0.89196 -0.13264,-0.01 -0.29758,-0.41117 -0.36656,-0.89196 -0.069,-0.48077 -0.23017,-0.88188 -0.35824,-0.89134 -0.12808,-0.01 -0.29059,-0.3491 -0.36113,-0.75474 -0.0706,-0.40567 -0.3642,-1.01115 -0.65259,-1.34554 -0.2884,-0.3344 -0.51166,-0.77972 -0.49615,-0.98963 0.0155,-0.20991 -0.28162,-0.57811 -0.66029,-0.81823 -0.37868,-0.24012 -0.67678,-0.59525 -0.66245,-0.78917 0.032,-0.43325 -2.5057,-3.48098 -2.92417,-3.51189 -0.16601,-0.0123 -0.57695,-0.36695 -0.91322,-0.7882 -0.33626,-0.42124 -0.75333,-0.77637 -0.92683,-0.78919 -0.17348,-0.0128 -0.43448,-0.29157 -0.57998,-0.61943 -0.1455,-0.32787 -0.45354,-0.6101 -0.68455,-0.62716 -0.23101,-0.0171 -0.41199,-0.13962 -0.40219,-0.27236 0.01,-0.13276 -0.48687,-0.4341 -1.10371,-0.66971 -0.61684,-0.23558 -1.11344,-0.53782 -1.10355,-0.67164 0.01,-0.13383 -0.42737,-0.36139 -0.97168,-0.50571 -0.54431,-0.14428 -0.9814,-0.37424 -0.9713,-0.51093 0.01,-0.1367 -0.52324,-0.38071 -1.18519,-0.54223 -0.66195,-0.16154 -1.26698,-0.41159 -1.34449,-0.55567 -0.0774,-0.14409 -0.93397,-0.40456 -1.90322,-0.5788 -0.96928,-0.17427 -1.75415,-0.42746 -1.74415,-0.56271 0.01,-0.13523 -1.65921,-0.36978 -3.70934,-0.52121 -2.05011,-0.15145 -3.73565,-0.16486 -3.74562,-0.0298 -0.01,0.13505 -0.95446,0.26329 -2.09885,0.28497 -1.14439,0.0216 -2.15944,0.14802 -2.25568,0.28076 -0.0962,0.13273 -0.66523,0.29634 -1.26444,0.36355 -0.59922,0.0672 -1.09719,0.22663 -1.10662,0.35426 -0.01,0.12761 -0.41049,0.28846 -0.89128,0.35742 -0.48078,0.069 -0.88168,0.2274 -0.89089,0.35207 -0.01,0.12467 -0.60939,0.34637 -1.33372,0.49264 -0.72433,0.14626 -1.32556,0.38225 -1.33607,0.52441 -0.0107,0.14216 -0.25125,0.328 -0.53501,0.41299 -0.563,0.16862 -0.78999,0.31375 -2.33191,1.49092 -1.73426,1.32403 -2.15478,1.60006 -2.67768,1.75762 -0.27662,0.0833 -0.51709,0.34294 -0.53437,0.57685 -0.0173,0.23391 -0.5154,0.83051 -1.10696,1.3258 -0.59155,0.49528 -1.08219,0.9904 -1.09031,1.10028 -0.009,0.10987 -0.34988,0.46729 -0.75949,0.79426 -0.4096,0.32696 -0.86126,0.94655 -1.00368,1.37685 -0.14242,0.43029 -0.43281,0.83475 -0.64528,0.89877 -0.21248,0.064 -0.49678,0.48662 -0.63176,0.93909 -0.13504,0.45247 -0.35838,0.81432 -0.4964,0.80413 -0.13803,-0.0107 -0.36903,0.42681 -0.51335,0.97111 -0.14428,0.54431 -0.36573,0.98202 -0.49203,0.97268 -0.12629,-0.01 -0.36177,0.52464 -0.5233,1.18659 -0.16154,0.66197 -0.40282,1.26243 -0.53618,1.33435 -0.13338,0.072 -0.52133,1.75136 -0.86213,3.73207 -0.47633,2.76838 -0.59876,4.35418 -0.52938,6.85673 0.0497,1.79051 0.19953,3.33681 0.33303,3.43623 0.13351,0.0994 0.28494,0.86497 0.33651,1.70122 0.0516,0.83626 0.20825,1.52893 0.34814,1.53927 0.13991,0.0107 0.31149,0.34734 0.38133,0.7489 0.0698,0.40156 0.23175,0.73785 0.35982,0.74731 0.12808,0.01 0.2893,0.41057 0.35826,0.89136 0.069,0.48077 0.23392,0.88215 0.36656,0.89195 0.13264,0.01 0.29885,0.42004 0.36937,0.91166 0.0705,0.4916 0.30445,0.97683 0.51984,1.07827 0.21539,0.10144 0.37827,0.36544 0.36193,0.58665 -0.0163,0.22124 0.21201,0.64225 0.50748,0.93561 0.29546,0.29335 0.5294,0.63878 0.51988,0.76763 -0.0254,0.34334 4.13428,5.13101 4.48015,5.15656 0.16168,0.0119 0.44485,0.27371 0.6293,0.58172 0.18444,0.308 0.61889,0.67316 0.96544,0.81148 0.34655,0.13831 0.62195,0.36155 0.61201,0.4961 -0.01,0.13454 0.35214,0.35506 0.80461,0.49007 0.45245,0.13503 0.88019,0.43635 0.95051,0.66971 0.0704,0.23334 0.32544,0.43886 0.56694,0.4567 0.2415,0.0178 0.43108,0.14086 0.42129,0.27337 -0.01,0.13251 0.71125,0.4701 1.60228,0.75018 0.89105,0.28008 1.68635,0.62245 1.76737,0.7608 0.081,0.13836 0.80912,0.37995 1.61803,0.53689 0.8089,0.15697 1.46308,0.3893 1.45368,0.51641 -0.01,0.12709 0.59156,0.33396 1.33544,0.45969 2.09381,0.35391 9.33775,0.62901 9.54018,0.36229 z"
           style="fill:#ffffff;fill-opacity:1;stroke:#ffffff;stroke-width:1.06667;stroke-opacity:0.825" />
        <ellipse
           ry="29.547186"
           rx="24.740522"
           cy="520.92584"
           cx="375.05121"
           id="path3965"
           style="fill:#ffffff;fill-opacity:1;stroke:#6cc24a;stroke-width:7.90003;stroke-miterlimit:4;stroke-dasharray:none;stroke-opacity:1" />
      </g>
    </g>
  </g>
</svg>
