<?xml version="1.0" encoding="UTF-8" standalone="no"?>
<!-- Created with Inkscape (http://www.inkscape.org/) -->

<svg
   xmlns:osb="http://www.openswatchbook.org/uri/2009/osb"
   xmlns:dc="http://purl.org/dc/elements/1.1/"
   xmlns:cc="http://creativecommons.org/ns#"
   xmlns:rdf="http://www.w3.org/1999/02/22-rdf-syntax-ns#"
   xmlns:svg="http://www.w3.org/2000/svg"
   xmlns="http://www.w3.org/2000/svg"
   xmlns:xlink="http://www.w3.org/1999/xlink"
   xmlns:sodipodi="http://sodipodi.sourceforge.net/DTD/sodipodi-0.dtd"
   xmlns:inkscape="http://www.inkscape.org/namespaces/inkscape"
   width="708.30524"
   height="478.19595"
   id="svg2"
   version="1.1"
   inkscape:version="0.91 r13725"
   sodipodi:docname="logo_RobSIB_english.svg"
   inkscape:export-filename="/home/giovani/RobSIC/logo/logo_RobSIB_english.png"
   inkscape:export-xdpi="90"
   inkscape:export-ydpi="90">
  <defs
     id="defs4">
    <linearGradient
       id="linearGradient5497">
      <stop
         style="stop-color:#599e47;stop-opacity:1;"
         offset="0"
         id="stop5499" />
      <stop
         style="stop-color:#a3dd94;stop-opacity:0;"
         offset="1"
         id="stop5501" />
    </linearGradient>
    <linearGradient
       inkscape:collect="always"
       id="linearGradient5485">
      <stop
         style="stop-color:#3da900;stop-opacity:1;"
         offset="0"
         id="stop5487" />
      <stop
         style="stop-color:#3da900;stop-opacity:0;"
         offset="1"
         id="stop5489" />
    </linearGradient>
    <linearGradient
       id="linearGradient5477">
      <stop
         style="stop-color:#3da900;stop-opacity:1;"
         offset="0"
         id="stop5479" />
      <stop
         id="stop5493"
         offset="0.5"
         style="stop-color:#3da900;stop-opacity:0.49803922;" />
      <stop
         style="stop-color:#3da900;stop-opacity:0;"
         offset="1"
         id="stop5481" />
    </linearGradient>
    <linearGradient
       id="linearGradient5448"
       osb:paint="solid">
      <stop
         style="stop-color:#5ab228;stop-opacity:0.5981735;"
         offset="0"
         id="stop5450" />
    </linearGradient>
    <linearGradient
       inkscape:collect="always"
       xlink:href="#linearGradient5477"
       id="linearGradient5483"
       x1="-33.486385"
       y1="274.30103"
       x2="562.01819"
       y2="660.7088"
       gradientUnits="userSpaceOnUse"
       spreadMethod="reflect" />
    <linearGradient
       inkscape:collect="always"
       xlink:href="#linearGradient5485"
       id="linearGradient5491"
       x1="112.0547"
       y1="697.21393"
       x2="248.83078"
       y2="792.08069"
       gradientUnits="userSpaceOnUse" />
    <linearGradient
       inkscape:collect="always"
       xlink:href="#linearGradient5497"
       id="linearGradient5503"
       x1="296.36365"
       y1="392.09091"
       x2="232.72726"
       y2="273.90909"
       gradientUnits="userSpaceOnUse" />
  </defs>
  <sodipodi:namedview
     id="base"
     pagecolor="#ffffff"
     bordercolor="#666666"
     borderopacity="1.0"
     inkscape:pageopacity="0.0"
     inkscape:pageshadow="2"
     inkscape:zoom="0.834386"
     inkscape:cx="114.69422"
     inkscape:cy="181.80395"
     inkscape:document-units="px"
     inkscape:current-layer="g3014"
     showgrid="false"
     inkscape:window-width="1855"
     inkscape:window-height="1056"
     inkscape:window-x="65"
     inkscape:window-y="24"
     inkscape:window-maximized="1"
     fit-margin-top="0"
     fit-margin-left="0"
     fit-margin-right="0"
     fit-margin-bottom="0" />
  <metadata
     id="metadata7">
    <rdf:RDF>
      <cc:Work
         rdf:about="">
        <dc:format>image/svg+xml</dc:format>
        <dc:type
           rdf:resource="http://purl.org/dc/dcmitype/StillImage" />
        <dc:title></dc:title>
      </cc:Work>
    </rdf:RDF>
  </metadata>
  <g
     inkscape:label="Layer 1"
     inkscape:groupmode="layer"
     id="layer1"
     transform="translate(-80.66375,-276.39561)">
    <rect
       style="fill:#ffffff;fill-opacity:1;stroke:none"
       id="rect5509"
       width="708.30524"
       height="478.19595"
       x="-63.51976"
       y="-40.119015"
       transform="translate(144.18351,316.51462)"
       ry="0.95797175" />
    <g
       id="g3014"
       inkscape:export-filename="/home/giovani/Desktop/RobSIC/logoROBSIC.png"
       inkscape:export-xdpi="90"
       inkscape:export-ydpi="90">
      <path
         inkscape:connector-curvature="0"
         id="path2996"
         d="m 419.46476,316.51462 c -17.93284,0 -33.03971,11.86493 -37.6875,28.03125 l -91.34375,6.125 c -6.43414,-14.20547 -20.9111,-24.125 -37.75,-24.125 -22.81607,0 -41.3125,18.19564 -41.3125,40.625 0,22.42936 18.49643,40.625 41.3125,40.625 5.73857,0 11.18979,-1.14004 16.15625,-3.21875 l 57.09375,66.53125 c -2.11762,4.35879 -3.70985,9.01556 -4.71875,13.875 l -85.625,-14.78125 c -2.33205,-22.7298 -21.85728,-40.46875 -45.59375,-40.46875 -25.3074,0 -45.8125,20.18404 -45.8125,45.0625 0,24.87846 20.5051,45.03125 45.8125,45.03125 19.49605,0 36.13027,-11.97262 42.75,-28.84375 l 87.90625,15.1875 c 1.08333,7.0942 3.41855,13.81294 6.78125,19.875 l -31.1875,29.4375 c -3.45462,-1.16245 -7.14461,-1.8125 -11,-1.8125 -18.77646,0 -34,14.94804 -34,33.40625 0,18.45821 15.22354,33.4375 34,33.4375 18.77646,0 34,-14.97929 34,-33.4375 0,-7.00238 -2.19323,-13.50471 -5.9375,-18.875 l 27.375,-25.875 c 10.85382,9.46751 25.1294,15.25 40.78125,15.25 2.33616,0 4.63782,-0.12559 6.90625,-0.375 l 20.65625,44.90625 c -12.18902,8.09517 -20.21875,21.82596 -20.21875,37.375 0,24.87846 20.53635,45.03125 45.84375,45.03125 25.3074,0 45.8125,-20.15279 45.8125,-45.03125 0,-24.87846 -20.5051,-45.0625 -45.8125,-45.0625 -1.98831,0 -3.95347,0.16477 -5.875,0.40625 l -20.03125,-43.53125 c 20.26765,-9.8827 34.1875,-30.40804 34.1875,-54.15625 0,-26.61818 -17.5035,-49.21617 -41.8125,-57.28125 l 14.125,-46.5625 c 1.38796,0.14633 2.79126,0.25 4.21875,0.25 21.63374,0 39.15625,-17.23293 39.15625,-38.5 0,-21.26707 -17.52251,-38.53125 -39.15625,-38.53125 z m -37.6875,49.03125 c 2.33054,8.09469 7.28655,15.08097 13.90625,20.0625 l -15.5,51.09375 c -16.13061,0.32611 -30.71677,6.7791 -41.5,17.0625 l -53.15625,-61.9375 c 4.48365,-5.7678 7.44001,-12.76614 8.25,-20.375 l 88,-5.90625 z m 1.0625,104.90625 c 15.78019,0 28.5625,14.04266 28.5625,31.375 0,17.33234 -12.78231,31.375 -28.5625,31.375 -15.78019,0 -28.59375,-14.04266 -28.59375,-31.375 0,-17.33234 12.81356,-31.375 28.59375,-31.375 z"
         style="fill:url(#linearGradient5483);fill-opacity:1;stroke:none" />
      <text
         sodipodi:linespacing="125%"
         id="text3125"
         y="544.45624"
         x="260.81052"
         style="font-style:normal;font-weight:normal;font-size:126.63314819px;line-height:125%;font-family:Sans;letter-spacing:0px;word-spacing:0px;fill:#748699;fill-opacity:1;stroke:none"
         xml:space="preserve"><tspan
           y="544.45624"
           x="260.81052"
           id="tspan3127"
           sodipodi:role="line">R  bSIB</tspan></text>
      <path
         inkscape:connector-curvature="0"
         id="path3963"
         d="m 383.49945,543.58474 c 0,-0.22237 -0.1158,-0.40431 -0.25733,-0.40431 -0.14153,0 -0.33697,-0.42453 -0.43431,-0.9434 -0.0973,-0.51887 -0.28478,-0.9434 -0.41653,-0.9434 -0.13175,0 -0.23954,-0.29457 -0.23954,-0.6546 0,-0.36003 -0.16736,-0.82196 -0.37192,-1.02652 -0.20455,-0.20455 -0.45852,-1.00162 -0.56438,-1.77127 -0.10585,-0.76965 -0.28887,-1.39936 -0.40671,-1.39936 -0.11784,0 -0.28892,-0.39802 -0.38018,-0.88449 -0.21917,-1.1683 -1.07436,-1.85828 -2.50279,-2.01928 -0.64067,-0.0722 -1.16486,-0.22716 -1.16486,-0.34433 0,-0.11717 -0.77735,-0.29628 -1.72745,-0.39803 l -1.72745,-0.18499 -3.46123,3.47597 c -2.31576,2.32563 -3.61733,3.44365 -3.93292,3.37828 -0.25944,-0.0537 -0.4717,-0.2101 -0.4717,-0.34747 0,-0.13738 -0.18575,-0.24978 -0.41277,-0.24978 -0.22703,0 -0.47975,-0.17453 -0.56161,-0.38784 -0.0819,-0.21332 -0.50257,-0.46554 -0.93493,-0.56051 -0.43236,-0.095 -0.78611,-0.27467 -0.78611,-0.39936 0,-0.12469 -0.36388,-0.30663 -0.80862,-0.40431 -0.44475,-0.0977 -0.80863,-0.29557 -0.80863,-0.43975 0,-0.14419 -0.36388,-0.389 -0.80863,-0.54404 -0.64796,-0.22588 -0.80862,-0.43731 -0.80862,-1.06415 0,-0.43024 0.1044,-0.78225 0.232,-0.78225 0.12759,0 0.30633,-0.62766 0.39718,-1.39479 0.0909,-0.76713 0.26939,-1.46457 0.39674,-1.54986 0.25842,-0.17309 0.86087,-3.57512 0.86087,-4.86136 0,-0.59306 -0.26838,-1.08949 -0.94339,-1.74502 -0.51887,-0.50389 -0.9434,-1.01019 -0.9434,-1.12512 0,-0.11493 -0.51052,-0.68501 -1.1345,-1.26686 l -1.1345,-1.0579 -1.7556,0.17987 c -0.96558,0.0989 -1.81961,0.27861 -1.89785,0.39929 -0.0782,0.12069 -0.87,0.3088 -1.75949,0.41803 -0.88949,0.10923 -1.6779,0.28893 -1.75202,0.39933 -0.0741,0.1104 -0.72247,0.2793 -1.44076,0.37531 -1.15678,0.15464 -1.32204,0.11318 -1.44653,-0.36286 -0.0773,-0.29559 -0.23193,-0.53744 -0.34362,-0.53744 -0.11169,0 -0.3559,-0.54583 -0.54268,-1.21294 -0.18678,-0.66712 -0.43549,-1.21294 -0.5527,-1.21294 -0.1172,0 -0.29079,-0.35375 -0.38575,-0.78611 -0.095,-0.43236 -0.34719,-0.85308 -0.5605,-0.93494 -0.21331,-0.0818 -0.38784,-0.33457 -0.38784,-0.5616 0,-0.22702 -0.12129,-0.41277 -0.26954,-0.41277 -0.43367,0 -0.31009,-1.02464 0.19467,-1.61417 0.25532,-0.29819 0.56819,-0.54216 0.69526,-0.54216 0.12707,0 1.51268,-1.27545 3.07913,-2.83432 l 2.84809,-2.83432 -0.35426,-2.87148 c -0.4151,-3.36459 -0.67149,-3.74228 -2.83538,-4.17685 -0.80915,-0.1625 -1.47118,-0.39451 -1.47118,-0.51558 0,-0.12106 -0.42453,-0.29976 -0.94339,-0.3971 -0.51887,-0.0973 -0.9434,-0.271 -0.9434,-0.38592 0,-0.11491 -0.54582,-0.29079 -1.21294,-0.39083 -0.66711,-0.10004 -1.21294,-0.28611 -1.21294,-0.4135 0,-0.12738 -0.38003,-0.31508 -0.84451,-0.41709 -0.46448,-0.10202 -0.72517,-0.26328 -0.57931,-0.35835 0.14585,-0.0951 0.34884,-1.68489 0.45107,-3.53294 0.10223,-1.84804 0.2808,-3.42486 0.39682,-3.50404 0.11602,-0.0792 0.28926,-0.35623 0.38498,-0.61566 0.12077,-0.32733 0.46535,-0.4717 1.12589,-0.4717 0.52352,0 0.95186,-0.10563 0.95186,-0.23473 0,-0.12911 0.97035,-0.31939 2.15633,-0.42284 1.18598,-0.10346 2.15633,-0.30106 2.15633,-0.43912 0,-0.13806 0.45486,-0.25267 1.01079,-0.2547 1.56303,-0.006 2.21463,-0.2706 2.39066,-0.97192 0.0886,-0.35291 0.25568,-0.64165 0.37136,-0.64165 0.11568,0 0.28831,-0.4157 0.38363,-0.92378 0.0953,-0.50807 0.30614,-0.96806 0.46849,-1.02217 0.16236,-0.0541 0.35651,-0.73643 0.43144,-1.51624 0.11569,-1.20408 0.0496,-1.49855 -0.4385,-1.95328 -0.31611,-0.2945 -0.57474,-0.64783 -0.57474,-0.7852 0,-0.13736 -0.36181,-0.64813 -0.80402,-1.13505 -1.40154,-1.54322 -1.62185,-1.82313 -1.62185,-2.06054 0,-0.12751 -0.43321,-0.69116 -0.96268,-1.25256 -1.13272,-1.20104 -1.09123,-1.95466 0.16846,-3.06003 0.43682,-0.3833 0.79422,-0.79528 0.79422,-0.91551 0,-0.12023 0.36388,-0.57431 0.80862,-1.00906 0.44474,-0.43475 0.80863,-0.90651 0.80863,-1.04835 0,-0.14184 0.38185,-0.63974 0.84855,-1.10645 0.67487,-0.67487 0.99155,-0.81267 1.54717,-0.67322 0.38423,0.0964 0.76047,0.26952 0.83608,0.38463 0.0756,0.11511 0.59232,0.29294 1.14825,0.39516 0.55593,0.10223 1.01078,0.29617 1.01078,0.43098 0,0.13481 0.42453,0.32476 0.9434,0.4221 0.51887,0.0973 0.94339,0.27513 0.94339,0.39511 0,0.11997 0.39421,0.30365 0.87601,0.40817 0.48181,0.10453 0.9495,0.30531 1.03933,0.44617 0.29259,0.45888 2.26551,0.57772 2.68599,0.16179 0.21186,-0.20956 0.59746,-0.4614 0.85689,-0.55964 0.25944,-0.0982 0.4717,-0.30372 0.4717,-0.45662 0,-0.1529 0.15162,-0.28009 0.33693,-0.28265 0.39933,-0.006 1.54987,-1.16413 1.54987,-1.56074 0,-0.15206 0.15161,-0.338 0.33692,-0.41319 0.24619,-0.0999 0.25481,-0.19668 0.032,-0.35939 -0.18987,-0.13866 -0.37911,-1.86845 -0.50159,-4.58491 l -0.1967,-4.36223 0.97329,-0.18259 c 0.53531,-0.10042 0.9733,-0.28295 0.9733,-0.40562 0,-0.12266 0.54582,-0.30488 1.21293,-0.40492 0.66712,-0.10004 1.21294,-0.27625 1.21294,-0.39157 0,-0.11533 0.78841,-0.36639 1.75202,-0.55793 0.96362,-0.19154 1.75203,-0.4415 1.75203,-0.55547 0,-0.11397 0.30323,0.0738 0.67385,0.41729 0.37062,0.34348 0.67385,0.76221 0.67385,0.93052 0,0.16831 0.1008,0.30602 0.224,0.30602 0.1232,0 0.39611,0.33356 0.60647,0.74124 0.4055,0.78587 0.48998,0.90826 1.33087,1.92804 0.29374,0.35624 0.53408,0.79811 0.53408,0.98194 0,0.18383 0.18194,0.40405 0.40431,0.48938 0.22238,0.0853 0.40432,0.27933 0.40432,0.4311 0,0.15178 0.26446,0.58011 0.58769,0.95186 0.54,0.62105 0.77112,0.6759 2.84791,0.6759 2.34448,0 3.30294,-0.27651 3.30294,-0.95288 0,-0.21715 0.11166,-0.39483 0.24813,-0.39483 0.13646,0 0.32804,-0.36388 0.42573,-0.80862 0.0977,-0.44475 0.27962,-0.80863 0.40431,-0.80863 0.12469,0 0.30843,-0.37207 0.40831,-0.82683 0.0999,-0.45477 0.3447,-0.88943 0.54403,-0.96592 0.19934,-0.0765 0.44012,-0.49282 0.53508,-0.92518 0.095,-0.43236 0.27468,-0.78611 0.39937,-0.78611 0.12469,0 0.30663,-0.36388 0.40431,-0.80862 0.0977,-0.44475 0.29317,-0.80863 0.43442,-0.80863 0.14124,0 0.36651,-0.27291 0.50058,-0.60647 0.16952,-0.42174 0.24897,-0.47085 0.26086,-0.16124 0.0131,0.3406 0.39715,0.48935 1.63433,0.63294 0.88949,0.10323 1.61725,0.28226 1.61725,0.39783 0,0.11556 1.00068,0.36403 2.22372,0.55214 1.22305,0.18812 2.31284,0.47586 2.42175,0.63942 0.10892,0.16357 0.19989,1.29808 0.20216,2.52112 0.002,1.30003 0.11609,2.22372 0.27367,2.22372 0.1607,0 0.26954,1.02974 0.26954,2.55015 0,2.27628 0.0634,2.60917 0.58991,3.09973 0.32445,0.30227 0.74898,0.54958 0.94339,0.54958 0.19442,0 0.35349,0.11166 0.35349,0.24813 0,0.13647 0.36388,0.32804 0.80863,0.42573 0.44474,0.0977 0.80862,0.28926 0.80862,0.42573 0,0.13646 0.30324,0.24812 0.67386,0.24812 0.37062,0 0.67385,-0.11166 0.67385,-0.24812 0,-0.13647 0.35375,-0.32583 0.78611,-0.42079 0.43236,-0.095 0.84869,-0.33575 0.92518,-0.53508 0.0765,-0.19934 0.51116,-0.44415 0.96592,-0.54403 0.45476,-0.0999 0.82683,-0.29326 0.82683,-0.42973 0,-0.13647 0.18575,-0.24813 0.41277,-0.24813 0.22703,0 0.47975,-0.17452 0.56161,-0.38784 0.0818,-0.21331 0.50258,-0.46554 0.93493,-0.5605 0.43236,-0.095 0.78611,-0.27116 0.78611,-0.39156 0,-0.1204 0.33234,-0.30232 0.73854,-0.40427 0.4062,-0.10195 0.81641,-0.31135 0.91158,-0.46535 0.16723,-0.27058 4.54934,3.87708 4.54934,4.30596 0,0.1153 0.21227,0.4012 0.4717,0.63534 0.91169,0.8228 1.46729,1.65169 1.21844,1.81778 -0.13796,0.0921 -0.42236,0.56163 -0.63198,1.04344 -0.20962,0.4818 -0.47281,0.87601 -0.58487,0.87601 -0.11206,0 -0.20375,0.16338 -0.20375,0.36307 0,0.19969 -0.24258,0.64277 -0.53908,0.98464 -0.2965,0.34186 -0.53908,0.78495 -0.53908,0.98463 0,0.19969 -0.11899,0.36307 -0.26441,0.36307 -0.14542,0 -0.34051,0.30324 -0.43353,0.67386 -0.093,0.37062 -0.26412,0.67385 -0.38023,0.67385 -0.1161,0 -0.28721,0.30324 -0.38023,0.67386 -0.093,0.37062 -0.28811,0.67385 -0.43353,0.67385 -0.14542,0 -0.26441,0.42453 -0.26441,0.9434 0,0.51887 0.11166,0.9434 0.24813,0.9434 0.13647,0 0.32805,0.36388 0.42573,0.80862 0.0977,0.44474 0.28108,0.80863 0.40756,0.80863 0.12648,0 0.30687,0.2423 0.40086,0.53845 0.094,0.29616 0.46605,0.61254 0.82679,0.70308 0.36074,0.0905 0.65589,0.27276 0.65589,0.40494 0,0.13217 1.06132,0.24105 2.35849,0.24193 1.29717,8.1e-4 3.35917,0.0795 4.58221,0.17473 2.10583,0.16393 2.22372,0.20671 2.22372,0.80701 0,0.34864 0.10899,0.6339 0.24219,0.6339 0.1332,0 0.32745,0.84906 0.43167,1.88679 0.10421,1.03774 0.28656,1.88679 0.4052,1.88679 0.11865,0 0.30019,0.72777 0.40342,1.61725 0.14441,1.24423 0.2904,1.61867 0.63294,1.62339 0.24487,0.003 0.0207,0.21051 -0.49817,0.4603 -0.51886,0.24978 -1.00525,0.54064 -1.08086,0.64634 -0.0756,0.10571 -0.46982,0.27561 -0.87601,0.37755 -0.4062,0.10195 -0.73854,0.28387 -0.73854,0.40427 0,0.1204 -0.36389,0.29883 -0.80863,0.39651 -0.44474,0.0977 -0.80862,0.27962 -0.80862,0.40431 0,0.12469 -0.36389,0.30663 -0.80863,0.40432 -0.44474,0.0977 -0.80863,0.28439 -0.80863,0.4149 0,0.13052 -0.48517,0.38267 -1.07816,0.56034 -0.59299,0.17766 -1.07817,0.47566 -1.07817,0.66221 0,0.18655 -0.14219,0.38658 -0.31597,0.44451 -0.37727,0.12576 -0.63036,3.02944 -0.38025,4.36262 0.11708,0.62411 0.36592,0.99775 0.7445,1.11791 0.31274,0.0993 0.88816,0.50735 1.27869,0.90686 0.39054,0.39951 0.91885,0.8065 1.17403,0.90442 0.25518,0.0979 0.46396,0.30314 0.46396,0.45604 0,0.1529 0.18313,0.278 0.40695,0.278 0.22382,0 0.61466,0.24259 0.86853,0.53909 0.25387,0.29649 0.55591,0.53908 0.67122,0.53908 0.1153,0 0.45222,0.24259 0.74872,0.53908 0.29649,0.2965 0.72102,0.53909 0.94339,0.53909 0.53217,0 0.64864,1.56027 0.14085,1.88679 -0.11528,0.0741 -0.29576,0.65027 -0.40107,1.28032 -0.10531,0.63006 -0.28273,1.14556 -0.39427,1.14556 -0.11154,0 -0.36284,0.66711 -0.55844,1.48247 -0.19561,0.81537 -0.45757,1.48248 -0.58214,1.48248 -0.12457,0 -0.22649,0.30324 -0.22649,0.67386 0,0.65383 -0.0554,0.67385 -1.86433,0.67385 -1.02538,0 -1.90476,-0.11501 -1.95418,-0.25558 -0.0494,-0.14056 -1.48472,-0.29218 -3.18958,-0.33692 -2.87131,-0.0754 -3.14245,-0.0386 -3.67959,0.49851 -0.31892,0.31892 -0.65709,0.82321 -0.7515,1.12065 -0.0944,0.29744 -0.34896,0.60884 -0.56569,0.692 -0.21673,0.0832 -0.39405,0.32399 -0.39405,0.53515 0,0.21116 -0.19718,0.4596 -0.43817,0.55208 -0.35098,0.13468 -0.41194,0.44112 -0.30635,1.54005 0.0725,0.75454 0.26398,1.45358 0.4255,1.55341 0.16153,0.0998 0.37553,0.69336 0.47557,1.31897 0.10004,0.62562 0.28218,1.13748 0.40477,1.13748 0.12258,0 0.30252,0.42453 0.39986,0.94339 0.0973,0.51887 0.26185,0.9434 0.36557,0.9434 0.31479,0 0.88559,2.63341 0.69854,3.22275 -0.0962,0.30296 -0.3524,0.55084 -0.56943,0.55084 -0.21704,0 -0.46266,0.17732 -0.54583,0.39405 -0.0832,0.21673 -0.38878,0.46945 -0.67914,0.56161 -0.4655,0.14774 -0.88603,0.48546 -2.67938,2.15171 -0.23481,0.21817 -0.5597,0.39667 -0.72199,0.39667 -0.16228,0 -0.48566,0.1906 -0.71862,0.42357 -0.23297,0.23295 -0.42357,0.2936 -0.42357,0.13477 0,-0.15884 -0.18091,-0.2888 -0.40203,-0.2888 -0.22112,0 -0.55352,-0.24259 -0.73869,-0.53908 -0.18516,-0.2965 -0.4801,-0.53909 -0.6554,-0.53909 -0.17531,0 -0.68263,-0.36388 -1.12737,-0.80862 -0.44474,-0.44475 -0.90961,-0.80863 -1.03303,-0.80863 -0.12342,0 -0.57008,-0.41459 -0.99258,-0.92131 -0.4225,-0.50673 -1.05862,-0.99422 -1.41359,-1.08331 -0.35497,-0.0891 -0.6454,-0.28096 -0.6454,-0.42639 0,-0.14542 -0.42452,-0.2644 -0.94339,-0.2644 -0.51887,0 -0.9434,0.097 -0.9434,0.21561 0,0.11858 -0.72776,0.36593 -1.61725,0.54965 -0.88949,0.18372 -1.61725,0.45058 -1.61725,0.59301 0,0.14244 -0.15498,0.25898 -0.34441,0.25898 -0.63884,0 -1.30217,1.11137 -1.46032,2.44666 -0.0864,0.72981 -0.2473,1.32692 -0.35748,1.32692 -0.11018,0 -0.28558,0.9097 -0.38977,2.02156 -0.10419,1.11186 -0.28441,2.02157 -0.40049,2.02157 -0.11608,0 -0.27747,0.49519 -0.35865,1.10043 -0.0812,0.60523 -0.20361,1.15644 -0.27207,1.22489 -0.0684,0.0685 -1.55793,0.22067 -3.30994,0.33824 -2.00835,0.13477 -3.22407,0.32956 -3.28993,0.52712 -0.15273,0.45819 -0.86815,0.38323 -0.86815,-0.091 z m 5.64275,-17.6148 c 0.0838,-0.1292 0.72854,-0.31982 1.43272,-0.42361 0.70418,-0.10378 1.28032,-0.27829 1.28032,-0.38779 0,-0.1095 0.72777,-0.34941 1.61725,-0.53314 0.88949,-0.18372 1.61725,-0.44093 1.61725,-0.57159 0,-0.13066 0.35375,-0.31526 0.78611,-0.41022 0.43236,-0.095 0.85308,-0.34719 0.93494,-0.5605 0.0819,-0.21331 0.33457,-0.38784 0.5616,-0.38784 0.22703,0 0.41277,-0.12129 0.41277,-0.26954 0,-0.14825 0.18575,-0.26954 0.41277,-0.26954 0.22703,0 0.48082,-0.17733 0.56399,-0.39405 0.0832,-0.21673 0.40783,-0.47551 0.72149,-0.57506 0.53143,-0.16867 5.30984,-4.75647 5.30984,-5.09804 0,-0.0852 0.24259,-0.41524 0.53908,-0.73349 0.2965,-0.31826 0.53909,-0.72474 0.53909,-0.90329 0,-0.17856 0.18194,-0.39447 0.40431,-0.4798 0.22237,-0.0853 0.40431,-0.3409 0.40431,-0.56792 0,-0.22703 0.11166,-0.41277 0.24812,-0.41277 0.13647,0 0.32805,-0.36389 0.42573,-0.80863 0.0977,-0.44474 0.28377,-0.80862 0.41352,-0.80862 0.12975,0 0.31555,-0.42453 0.41289,-0.9434 0.0973,-0.51887 0.27101,-0.9434 0.38593,-0.9434 0.11491,0 0.29079,-0.54582 0.39083,-1.21293 0.10004,-0.66712 0.27737,-1.21294 0.39407,-1.21294 0.3283,0 0.83377,-4.17304 0.83254,-6.87332 -0.001,-2.76538 -0.48793,-7.21086 -0.81154,-7.41301 -0.11921,-0.0745 -0.30201,-0.58997 -0.40624,-1.14556 -0.10423,-0.55559 -0.28767,-1.01016 -0.40764,-1.01016 -0.11997,0 -0.29805,-0.36388 -0.39573,-0.80863 -0.0977,-0.44474 -0.27962,-0.80862 -0.40431,-0.80862 -0.12469,0 -0.30663,-0.36388 -0.40432,-0.80863 -0.0977,-0.44474 -0.27611,-0.80862 -0.3965,-0.80862 -0.1204,0 -0.29579,-0.30632 -0.38976,-0.68071 -0.094,-0.3744 -0.41035,-0.92022 -0.70307,-1.21294 -0.29273,-0.29273 -0.53223,-0.69367 -0.53223,-0.89099 0,-0.19733 -0.30323,-0.52106 -0.67385,-0.71941 -0.37062,-0.19835 -0.67386,-0.50979 -0.67386,-0.69209 0,-0.40727 -2.58311,-3.08149 -2.9765,-3.08149 -0.15606,0 -0.56477,-0.30324 -0.90825,-0.67386 -0.34348,-0.37062 -0.75795,-0.67385 -0.92104,-0.67385 -0.16309,0 -0.42636,-0.24259 -0.58504,-0.53908 -0.15868,-0.2965 -0.46618,-0.53909 -0.68334,-0.53909 -0.21716,0 -0.39483,-0.10209 -0.39483,-0.22687 0,-0.12479 -0.48518,-0.37224 -1.07817,-0.54991 -0.59299,-0.17766 -1.07816,-0.42595 -1.07816,-0.55175 0,-0.1258 -0.42453,-0.30836 -0.9434,-0.4057 -0.51887,-0.0973 -0.9434,-0.28212 -0.9434,-0.41062 0,-0.1285 -0.5155,-0.3198 -1.14555,-0.42511 -0.63005,-0.10531 -1.21299,-0.29731 -1.29541,-0.42667 -0.0824,-0.12936 -0.90115,-0.31373 -1.8194,-0.4097 -0.91826,-0.096 -1.66956,-0.27852 -1.66956,-0.40565 0,-0.12713 -1.57682,-0.23114 -3.50404,-0.23114 -1.92722,0 -3.50404,0.10387 -3.50404,0.23083 0,0.12696 -0.87419,0.31209 -1.94264,0.41139 -1.06846,0.0993 -2.00876,0.28753 -2.08957,0.41828 -0.0808,0.13075 -0.6015,0.32301 -1.15709,0.42723 -0.55559,0.10423 -1.01016,0.28767 -1.01016,0.40764 0,0.11997 -0.36388,0.29805 -0.80863,0.39573 -0.44474,0.0977 -0.80862,0.2735 -0.80862,0.3907 0,0.1172 -0.54583,0.36592 -1.21294,0.5527 -0.66712,0.18678 -1.21294,0.44894 -1.21294,0.58257 0,0.13364 -0.21226,0.32402 -0.4717,0.42308 -0.51473,0.19653 -0.71693,0.3479 -2.07725,1.55499 -1.53001,1.35768 -1.90412,1.64479 -2.38212,1.82822 -0.25287,0.097 -0.45977,0.35634 -0.45977,0.57623 0,0.21988 -0.42452,0.81209 -0.94339,1.31601 -0.51887,0.50392 -0.9434,1.00072 -0.9434,1.10401 0,0.10329 -0.29485,0.46106 -0.65523,0.79505 -0.36038,0.33398 -0.73987,0.94446 -0.84331,1.35661 -0.10344,0.41214 -0.347,0.81034 -0.54123,0.88487 -0.19424,0.0745 -0.43086,0.48927 -0.52582,0.92163 -0.095,0.43236 -0.27882,0.78611 -0.40857,0.78611 -0.12975,0 -0.31555,0.42453 -0.41289,0.94339 -0.0973,0.51887 -0.27412,0.9434 -0.39284,0.9434 -0.11872,0 -0.30201,0.5155 -0.40732,1.14555 -0.10531,0.63006 -0.28943,1.20812 -0.40915,1.28458 -0.11973,0.0765 -0.36646,1.67344 -0.5483,3.54884 -0.25415,2.62121 -0.2591,4.11231 -0.0214,6.44729 0.17009,1.67061 0.417,3.10598 0.54869,3.1897 0.13168,0.0837 0.32614,0.78903 0.43211,1.56733 0.10598,0.7783 0.30029,1.41509 0.4318,1.41509 0.13152,0 0.31522,0.30324 0.40824,0.67386 0.093,0.37062 0.26764,0.67385 0.38804,0.67385 0.12039,0 0.29882,0.36388 0.3965,0.80863 0.0977,0.44474 0.27963,0.80862 0.40432,0.80862 0.12469,0 0.30843,0.37208 0.40831,0.82684 0.0999,0.45476 0.35211,0.89227 0.5605,0.97224 0.20839,0.08 0.3789,0.31554 0.3789,0.5235 0,0.20797 0.24258,0.58583 0.53908,0.83969 0.2965,0.25387 0.53908,0.56068 0.53908,0.68179 0,0.32277 4.21972,4.51174 4.54486,4.51174 0.15198,0 0.43482,0.22518 0.62854,0.50041 0.19371,0.27523 0.62512,0.58664 0.95868,0.69202 0.33356,0.10538 0.60647,0.29509 0.60647,0.42157 0,0.12647 0.35375,0.30765 0.78611,0.40262 0.43235,0.095 0.85308,0.34718 0.93493,0.5605 0.0819,0.21331 0.33458,0.38784 0.56161,0.38784 0.22702,0 0.41277,0.10192 0.41277,0.22649 0,0.12457 0.69744,0.3904 1.54986,0.59073 0.85243,0.20032 1.61965,0.46549 1.70495,0.58925 0.0853,0.12377 0.78273,0.29936 1.54986,0.39022 0.76713,0.0909 1.39479,0.26294 1.39479,0.38242 0,0.11947 0.57614,0.27138 1.28032,0.33756 1.98205,0.18628 8.7738,-0.0568 8.94464,-0.32015 z"
         style="fill:#ffffff;fill-opacity:1;stroke:none" />
      <path
         transform="matrix(0.71625457,0,0,0.71625457,229.19266,-63.910061)"
         d="m 243.56435,788.50079 a 28.217821,36.138615 0 0 1 -28.21782,36.13862 28.217821,36.138615 0 0 1 -28.21782,-36.13862 28.217821,36.138615 0 0 1 28.21782,-36.13861 28.217821,36.138615 0 0 1 28.21782,36.13861 z"
         sodipodi:ry="36.138615"
         sodipodi:rx="28.217821"
         sodipodi:cy="788.50079"
         sodipodi:cx="215.34653"
         id="path3965"
         style="fill:url(#linearGradient5491);fill-opacity:1;stroke:#5ab228;stroke-width:3.37310243;stroke-miterlimit:4;stroke-opacity:0.6;stroke-dasharray:none"
         sodipodi:type="arc" />
      <path
         transform="matrix(1.0272437,0,0,1,142.90375,309.42371)"
         d="m 327.27273,329.36365 a 44.090908,44.090908 0 0 1 -44.09091,44.09091 44.090908,44.090908 0 0 1 -44.0909,-44.09091 44.090908,44.090908 0 0 1 44.0909,-44.09091 44.090908,44.090908 0 0 1 44.09091,44.09091 z"
         sodipodi:ry="44.090908"
         sodipodi:rx="44.090908"
         sodipodi:cy="329.36365"
         sodipodi:cx="283.18182"
         id="path5495"
         style="fill:url(#linearGradient5503);fill-opacity:1;stroke:none"
         sodipodi:type="arc" />
    </g>
    <text
       xml:space="preserve"
       style="font-style:normal;font-variant:normal;font-weight:normal;font-stretch:normal;font-size:23.43463326px;line-height:125%;font-family:Sans;-inkscape-font-specification:'Sans, Normal';text-align:start;letter-spacing:0px;word-spacing:0px;writing-mode:lr-tb;text-anchor:start;fill:#34475c;fill-opacity:1;stroke:none"
       x="87.192123"
       y="682.09796"
       id="text5505"
       sodipodi:linespacing="125%"
       transform="scale(0.93738531,1.0667972)"><tspan
         sodipodi:role="line"
         id="tspan5507"
         x="87.192123"
         y="682.09796">Laboratory of Robotics, Intelligent and Bio Inspirated Systems</tspan></text>
  </g>
</svg>
